<svg id="Ramen" xmlns="http://www.w3.org/2000/svg" viewBox="0 0 17 12"><title>bird_ramen</title><polyline id="Bowl" points="13 6 12 6 11 6 10 6 9 6 8 6 7 6 6 6 5 6 4 6 3 6 3 5 2 5 1 5 1 6 1 7 1 8 2 8 2 10 3 10 4 10 4 11 5 11 6 11 7 11 8 11 9 11 10 11 11 11 12 11 13 11 13 10 14 10 15 10 15 8 16 8 16 7 16 6 16 5 15 5 14 5" fill="#fff"/><polygon id="Bowl_Side" data-name="Bowl Side" points="15 7 14 7 13 7 12 7 11 7 10 7 9 7 8 7 7 7 6 7 5 7 4 7 3 7 2 7 1 7 1 8 2 8 2 10 3 10 4 10 4 11 5 11 6 11 7 11 8 11 9 11 10 11 11 11 12 11 13 11 13 10 14 10 15 10 15 8 16 8 16 7 15 7" fill="#ddd"/><polygon id="Bowl_Base" data-name="Bowl Base" points="12 10 11 10 10 10 9 10 8 10 7 10 6 10 5 10 4 10 4 11 5 11 6 11 7 11 8 11 9 11 10 11 11 11 12 11 13 11 13 10 12 10" fill="#c4c4c4"/><path d="M13,3H12V4h1V3Zm1,1H13V5h1V4ZM13,4h0Z" fill="#d8aa61"/><polygon points="11 4 10 4 9 4 9 5 10 5 11 5 11 4 11 4" fill="#d8aa61"/><path d="M5,2H4V4H5V2ZM8,4H5V5H8V4ZM5,4H5Z" fill="#d8aa61"/><polygon points="7 2 6 2 6 3 7 3 7 2 7 2" fill="#d8aa61"/><polygon points="3 3 2 3 2 4 2 5 3 5 3 4 3 3 3 3" fill="#d8aa61"/><polygon points="15 3 14 3 14 4 14 5 15 5 15 4 15 3 15 3" fill="#f9cc73"/><polygon points="14 2 13 2 13 3 14 3 14 2 14 2" fill="#f9cc73"/><path d="M13,4H11V5h2V4ZM11,4h0Z" fill="#f9cc73"/><polygon points="7 3 6 3 5 3 5 4 6 4 7 4 7 3 7 3" fill="#f9cc73"/><polygon points="4 4 3 4 3 5 4 5 4 4 4 4" fill="#f9cc73"/><polygon points="4 2 3 2 3 3 3 4 4 4 4 3 4 2 4 2" fill="#f9cc73"/><polygon points="9 4 8 4 8 5 9 5 9 4 9 4" fill="#f9cc73"/><g id="Egg_White" data-name="Egg White"><polygon points="13 1 12 1 11 1 11 2 10 2 9 2 9 1 8 1 7 1 7 2 8 2 8 3 9 3 10 3 11 3 12 3 12 2 13 2 13 1 13 1" fill="#fff"/></g><g id="Egg_Yolk" data-name="Egg Yolk"><polygon points="11 1 10 1 9 1 9 2 10 2 11 2 11 1 11 1" fill="#ffc440"/></g><g id="Greens"><rect x="4" y="4" width="1" height="1" fill="#5f9023"/><polygon points="9 4 10 4 10 4 9 4 9 4" fill="#5f9023"/><rect x="7" y="3" width="1" height="1" fill="#5f9023"/><rect x="5" y="2" width="1" height="1" fill="#5f9023"/><polygon points="3 4 3 4 4 4 4 4 3 4" fill="#5f9023"/><rect x="13" y="3" width="1" height="1" fill="#5f9023"/></g><g id="Ramen_Shadow" data-name="Ramen Shadow" opacity="0.33"><polygon points="15 4 14 4 13 4 12 4 11 4 10 4 9 4 8 4 7 4 6 4 5 4 4 4 3 4 2 4 2 5 3 5 4 5 5 5 6 5 7 5 8 5 9 5 10 5 11 5 12 5 13 5 14 5 15 5 15 4 15 4"/><polygon points="13 3 12 3 12 4 13 4 13 3 13 3"/><polygon points="8 3 7 3 7 4 8 4 8 3 8 3"/></g><g id="Ramen_Highlight" data-name="Ramen Highlight" opacity="0.2"><polygon points="3 3 2 3 2 4 3 4 3 3 3 3" fill="#fff"/><polygon points="7 2 6 2 5 2 4 2 3 2 3 3 4 3 5 3 6 3 7 3 7 2 7 2" fill="#fff"/><polygon points="14 2 13 2 13 3 14 3 14 2 14 2" fill="#fff"/></g><g id="Outline"><polygon points="2 3 1 3 1 4 0 4 0 5 0 6 0 7 0 8 1 8 1 7 1 6 1 5 2 5 2 4 2 3 2 3" fill="#333"/><polygon points="2 8 1 8 1 10 2 10 2 8 2 8" fill="#333"/><polygon points="4 10 3 10 2 10 2 11 3 11 4 11 4 10 4 10" fill="#333"/><polygon points="16 8 15 8 15 10 16 10 16 8 16 8" fill="#333"/><polygon points="15 10 14 10 13 10 13 11 14 11 15 11 15 10 15 10" fill="#333"/><polygon points="16 3 15 3 15 4 15 5 16 5 16 6 16 7 16 8 17 8 17 7 17 6 17 5 17 4 16 4 16 3 16 3" fill="#333"/><polygon points="13 11 12 11 11 11 10 11 9 11 8 11 7 11 6 11 5 11 4 11 4 12 5 12 6 12 7 12 8 12 9 12 10 12 11 12 12 12 13 12 13 11 13 11" fill="#333"/><polygon points="15 5 14 5 13 5 12 5 11 5 10 5 9 5 8 5 7 5 6 5 5 5 4 5 3 5 2 5 2 6 3 6 4 6 5 6 6 6 7 6 8 6 9 6 10 6 11 6 12 6 13 6 14 6 15 6 15 5 15 5" fill="#333"/><polygon points="15 2 14 2 14 3 15 3 15 2 15 2" fill="#333"/><polygon points="14 1 13 1 13 2 14 2 14 1 14 1" fill="#333"/><polygon points="3 2 2 2 2 3 3 3 3 2 3 2" fill="#333"/><polygon points="13 0 12 0 11 0 10 0 9 0 8 0 7 0 7 1 8 1 9 1 10 1 11 1 12 1 13 1 13 0 13 0" fill="#333"/><polygon points="13 2 12 2 12 3 13 3 13 2 13 2" fill="#333"/><polygon points="12 3 11 3 10 3 9 3 8 3 8 4 9 4 10 4 11 4 12 4 12 3 12 3" fill="#333"/><polygon points="8 2 7 2 7 3 8 3 8 2 8 2" fill="#333"/><polygon points="7 1 6 1 5 1 4 1 3 1 3 2 4 2 5 2 6 2 7 2 7 1 7 1" fill="#333"/></g></svg>