<svg id="Blue_Bird" data-name="Blue Bird" xmlns="http://www.w3.org/2000/svg" viewBox="0 0 17 12"><title>bird_blue</title><g id="Outline"><polygon points="1 4 0 4 0 5 0 6 0 7 1 7 1 6 1 5 1 4 1 4" fill="#333"/><polygon points="2 7 1 7 1 8 2 8 2 7 2 7" fill="#333"/><polygon points="5 8 4 8 3 8 2 8 2 9 2 10 3 10 3 9 4 9 5 9 5 8 5 8" fill="#333"/><polygon points="6 7 5 7 5 8 6 8 6 7 6 7" fill="#333"/><polygon points="7 5 6 5 6 6 6 7 7 7 7 6 7 5 7 5" fill="#333"/><polygon points="6 4 5 4 5 5 6 5 6 4 6 4" fill="#333"/><polygon points="4 2 3 2 3 3 2 3 1 3 1 4 2 4 3 4 4 4 5 4 5 3 4 3 4 2 4 2" fill="#333"/><polygon points="5 10 4 10 3 10 3 11 4 11 5 11 5 10 5 10" fill="#333"/><polygon points="6 1 5 1 4 1 4 2 5 2 6 2 6 1 6 1" fill="#333"/><polygon points="12 0 11 0 10 0 9 0 8 0 7 0 6 0 6 1 7 1 8 1 9 1 9 2 10 2 10 1 11 1 12 1 12 0 12 0" fill="#333"/><polygon points="9 2 8 2 8 3 8 4 8 5 9 5 9 4 9 3 9 2 9 2" fill="#333"/><polygon points="10 5 9 5 9 6 10 6 10 5 10 5" fill="#333"/><polygon points="10 7 9 7 9 8 10 8 10 7 10 7" fill="#333"/><polygon points="9 8 8 8 8 9 9 9 9 8 9 8" fill="#333"/><polygon points="10 9 9 9 9 10 10 10 10 9 10 9" fill="#333"/><polygon points="10 11 9 11 8 11 7 11 6 11 5 11 5 12 6 12 7 12 8 12 9 12 10 12 10 11 10 11" fill="#333"/><polygon points="17 7 16 7 16 8 17 8 17 7 17 7" fill="#333"/><polygon points="16 8 15 8 14 8 13 8 12 8 11 8 10 8 10 9 11 9 12 9 13 9 14 9 15 9 15 10 16 10 16 9 16 8 16 8" fill="#333"/><polygon points="15 10 14 10 13 10 12 10 11 10 10 10 10 11 11 11 12 11 13 11 14 11 15 11 15 10 15 10" fill="#333"/><polygon points="15 3 14 3 14 4 14 5 14 6 13 6 12 6 11 6 10 6 10 7 11 7 12 7 13 7 14 7 15 7 16 7 16 6 15 6 15 5 15 4 15 3 15 3" fill="#333"/><polygon points="13 1 12 1 12 2 13 2 13 1 13 1" fill="#333"/><polygon points="14 2 13 2 13 3 14 3 14 2 14 2" fill="#333"/><polygon points="13 3 12 3 12 4 12 5 13 5 13 4 13 3 13 3" fill="#333"/></g><g id="Color"><rect x="10" y="5" width="1" height="1" fill="#fff"/><polygon points="11 5 10 5 10 6 11 6 11 5 11 5" fill="#e6e6e6"/><path d="M9.5,3.5v0Z" fill="#fff"/><polygon points="10 3 9 3 9 4 9 5 10 5 10 4 10 3 10 3" fill="#e6e6e6"/><polygon points="16 7 15 7 14 7 13 7 12 7 11 7 10 7 10 8 11 8 12 8 13 8 14 8 15 8 16 8 16 7 16 7" fill="#e054ef"/><polygon points="10 8 9 8 9 9 10 9 10 8 10 8" fill="#e054ef"/><polygon points="15 9 14 9 13 9 12 9 11 9 10 9 10 10 11 10 12 10 13 10 14 10 15 10 15 9 15 9" fill="#e054ef"/><polygon points="4 2 4 3 5 3 6 3 6 2 5 2 4 2" fill="#31acff"/><polygon points="8 1 7 1 6 1 6 2 7 2 8 2 9 2 9 1 8 1" fill="#31acff"/><polygon points="9 10 9 9 8 9 8 8 7 8 6 8 5 8 5 9 4 9 3 9 3 10 4 10 5 10 5 11 6 11 7 11 8 11 9 11 10 11 10 10 9 10" fill="#3373f2"/><polygon points="9 6 9 5 8 5 8 4 8 3 8 2 7 2 6 2 6 3 5 3 5 4 6 4 6 5 7 5 7 6 7 7 6 7 6 8 7 8 8 8 9 8 9 7 10 7 10 6 9 6" fill="#2699f7"/><rect x="1" y="6" width="1" height="1" fill="#b8dcf4"/><polygon points="3 7 2 7 2 8 3 8 4 8 5 8 5 7 4 7 3 7" fill="#b8dcf4"/><rect x="5" y="6" width="1" height="1" fill="#b8dcf4"/><polygon points="11.5 4.5 10.5 4.5 10.5 1.5 11.5 1.5 11.5 2.5 12.5 2.5 11.5 2.5 11.5 5.5 11.5 4.5" fill="#fff"/><path d="M11,2V2m1-1H10V2H9V3h1V5h1V6h3V3H13V5H12V3h1V2H12V1Z" fill="#fff"/><polygon points="2.5 6.5 2.5 5.5 1.5 5.5 1.5 4.5 4.5 4.5 4.5 5.5 5.5 5.5 4.5 5.5 4.5 6.5 2.5 6.5" fill="#fff"/><path d="M4,5V6H3V5H4M5,4H1V6H2V7H5V6H6V5H5V4Z" fill="#fff"/></g></svg>