<svg id="Cloud" xmlns="http://www.w3.org/2000/svg" viewBox="0 0 480 85"><title>cloud</title><polygon points="444 52 444 53 443 53 442 53 442 54 441 54 440 54 439 54 439 55 439 56 439 57 438 57 438 58 438 59 437 59 437 60 437 61 436 61 436 62 435 62 435 63 434 63 433 63 433 64 432 64 431 64 431 65 430 65 429 65 428 65 427 65 426 65 426 64 425 64 424 64 424 63 423 63 422 63 422 62 421 62 421 61 420 61 419 61 418 61 417 61 417 62 416 62 416 63 416 64 415 64 415 65 414 65 413 65 413 66 413 67 412 67 411 67 410 67 410 68 409 68 408 68 408 69 407 69 406 69 405 69 404 69 403 69 403 68 402 68 401 68 401 67 400 67 399 67 398 67 398 66 398 65 398 64 397 64 396 64 396 63 395 63 394 63 394 62 394 61 394 60 394 59 393 59 393 58 393 57 393 56 393 55 393 54 392 54 391 54 390 54 390 55 390 56 389 56 389 57 389 58 388 58 388 59 387 59 387 60 386 60 385 60 385 61 384 61 384 62 385 62 385 63 385 64 385 65 385 66 385 67 385 68 385 69 384 69 384 70 384 71 383 71 383 72 382 72 382 73 381 73 381 74 380 74 379 74 378 74 378 75 377 75 376 75 375 75 374 75 374 76 374 77 373 77 373 78 373 79 372 79 372 80 372 81 371 81 371 82 370 82 370 83 369 83 368 83 368 84 367 84 367 85 366 85 365 85 364 85 363 85 362 85 362 84 361 84 360 84 360 83 359 83 358 83 358 82 357 82 357 81 356 81 356 80 356 79 355 79 355 78 355 77 354 77 354 76 354 75 354 74 354 73 354 72 355 72 355 71 355 70 356 70 356 69 356 68 357 68 357 67 358 67 358 66 357 66 356 66 355 66 355 65 354 65 353 65 353 64 352 64 351 64 350 64 350 63 350 62 350 61 349 61 348 61 348 60 347 60 346 60 346 59 346 58 346 57 346 56 345 56 345 55 345 54 344 54 343 54 343 53 342 53 341 53 341 52 340 52 340 51 339 51 339 50 338 50 338 49 338 48 338 47 337 47 337 46 337 45 336 45 336 46 336 47 335 47 334 47 334 48 333 48 333 49 332 49 332 50 331 50 330 50 330 50.5 330.5 50.5 330.5 51.5 331.5 51.5 331.5 52.5 331.5 53.5 332.5 53.5 332.5 54.5 332.5 55.5 332.5 56.5 332.5 57.5 332.5 58.5 332.5 59.5 332.5 60.5 331.5 60.5 331.5 61.5 331.5 62.5 330.5 62.5 330.5 63.5 329.5 63.5 329.5 64.5 328.5 64.5 328.5 65.5 327.5 65.5 326.5 65.5 325.5 65.5 325.5 66.5 324.5 66.5 323.5 66.5 322.5 66.5 321.5 66.5 321.5 67.5 321.5 68.5 320.5 68.5 320.5 69.5 320.5 70.5 319.5 70.5 319.5 71.5 319.5 72.5 318.5 72.5 318.5 73.5 317.5 73.5 317.5 74.5 316.5 74.5 315.5 74.5 315.5 75.5 314.5 75.5 314.5 76.5 313.5 76.5 312.5 76.5 311.5 76.5 310.5 76.5 309.5 76.5 309.5 75.5 308.5 75.5 307.5 75.5 307.5 74.5 306.5 74.5 305.5 74.5 305.5 73.5 304.5 73.5 304.5 72.5 303.5 72.5 303.5 71.5 303.5 70.5 302.5 70.5 302.5 69.5 302.5 69 302 69 302 70 302 71 301 71 301 72 300 72 300 73 299 73 299 74 298 74 297 74 296 74 296 75 295 75 294 75 293 75 292 75 292 76 292 77 291 77 291 78 291 79 290 79 290 80 290 81 289 81 289 82 288 82 288 83 287 83 286 83 286 84 285 84 285 85 284 85 283 85 282 85 281 85 280 85 280 84 279 84 278 84 278 83 277 83 276 83 276 82 275 82 275 81 274 81 274 80 274 79 273 79 273 78 273 77 272 77 272 76 272 75 272 74 272 73 272 72 273 72 273 71 273 70 274 70 274 69 274 68 275 68 275 67 276 67 276 66 276 65 276 64 276 63 275 63 275 62 274 62 274 63 274 64 273 64 273 65 272 65 272 66 271 66 270 66 270 67 269 67 269 68 268 68 267 68 266 68 265 68 264 68 264 67 263 67 262 67 262 66 261 66 260 66 260 65 259 65 259 64 258 64 258 63 258 62 257 62 257 61 257 60 256 60 256 59 256 58 256 57 256 56 256 55 257 55 257 54 257 53 258 53 258 52 257 52 257 53 256 53 255 53 254 53 254 54 253 54 252 54 251 54 250 54 249 54 249 55 249 56 249 57 248 57 248 58 248 59 247 59 246 59 246 60 245 60 245 61 244 61 244 62 243 62 242 62 242 63 241 63 240 63 239 63 238 63 237 63 236 63 235 63 235 62 234 62 233 62 233 61 232 61 232 60 231 60 231 61 231 62 230 62 230 63 230 64 230 65 229 65 228 65 227 65 227 66 227 67 226 67 226 68 226 69 225 69 224 69 223 69 222 69 222 70 221 70 220 70 219 70 218 70 217 70 216 70 215 70 215 69 214 69 213 69 212 69 212 68 211 68 210 68 210 67 210 66 209 66 209 65 208 65 208 64 208 63 208 62 207 62 207 61 207 60 207 59 206 59 206 58 206 57 206 56 206 55 206 54 205 54 204 54 203 54 203 53 202 53 201 53 201 52 201 51 200 51 200 50 199 50 199 49 198 49 198 48 198 47 197 47 196 47 196 48 195 48 195 49 194 49 194 50 193 50 192 50 192 51 191 51 190 51 189 51 189 52 189 53 189 54 188 54 188 55 188 56 187 56 187 57 187 58 186 58 186 59 185 59 185 60 184 60 183 60 183 61 182 61 181 61 181 62 180 62 179 62 178 62 177 62 176 62 176 61 175 61 174 61 174 60 173 60 172 60 172 59 171 59 171 58 170 58 169 58 168 58 167 58 167 59 166 59 166 60 166 61 165 61 165 62 164 62 163 62 163 63 163 64 162 64 161 64 160 64 160 65 159 65 158 65 158 66 157 66 156 66 155 66 154 66 153 66 153 65 152 65 151 65 151 64 150 64 149 64 148 64 148 63 148 62 148 61 147 61 146 61 146 60 145 60 144 60 144 59 144 58 144 57 144 56 143 56 143 55 143 54 143 53 143 52 143 51 142 51 141 51 140 51 140 52 140 53 139 53 139 54 139 55 138 55 138 56 137 56 137 57 136 57 135 57 135 58 134 58 134 59 135 59 135 60 135 61 135 62 135 63 135 64 135 65 135 66 134 66 134 67 134 68 133 68 133 69 132 69 132 70 131 70 131 71 130 71 129 71 128 71 128 72 127 72 126 72 125 72 124 72 124 73 124 74 123 74 123 75 123 76 122 76 122 77 122 78 121 78 121 79 120 79 120 80 119 80 118 80 118 81 117 81 117 82 116 82 115 82 114 82 113 82 112 82 112 81 111 81 110 81 110 80 109 80 108 80 108 79 107 79 107 78 106 78 106 77 106 76 105 76 105 75 105 74 104 74 104 73 104 72 104 71 104 70 104 69 105 69 105 68 105 67 106 67 106 66 106 65 107 65 107 64 108 64 108 63 107 63 106 63 105 63 105 62 104 62 103 62 103 61 102 61 101 61 100 61 100 60 100 59.5 99.5 59.5 99.5 60.5 99.5 61.5 98.5 61.5 98.5 62.5 98.5 63.5 97.5 63.5 97.5 64.5 97.5 65.5 96.5 65.5 96.5 66.5 95.5 66.5 95.5 67.5 94.5 67.5 93.5 67.5 93.5 68.5 92.5 68.5 92.5 69.5 91.5 69.5 90.5 69.5 89.5 69.5 88.5 69.5 87.5 69.5 87.5 68.5 86.5 68.5 85.5 68.5 85.5 67.5 84.5 67.5 83.5 67.5 83.5 66.5 82.5 66.5 82.5 65.5 81.5 65.5 81.5 64.5 81.5 63.5 80.5 63.5 80.5 62.5 80.5 62 80 62 80 63 80 64 79 64 79 65 78 65 78 66 77 66 77 67 76 67 75 67 74 67 74 68 73 68 72 68 71 68 70 68 70 69 70 70 69 70 69 71 69 72 68 72 68 73 68 74 67 74 67 75 66 75 66 76 65 76 64 76 64 77 63 77 63 78 62 78 61 78 60 78 59 78 58 78 58 77 57 77 56 77 56 76 55 76 54 76 54 75 53 75 53 74 52 74 52 73 52 72 51 72 51 71 51 70 50 70 50 69 50 68 50 67 50 66 50 65 51 65 51 64 51 63 52 63 52 62 52 61 53 61 53 60 54 60 54 59 54 58 54 57 54 56 53 56 53 55 52 55 52 56 52 57 51 57 51 58 50 58 50 59 49 59 48 59 48 60 47 60 47 61 46 61 45 61 44 61 43 61 42 61 42 60 41 60 40 60 40 59 39 59 38 59 38 58 37 58 37 57 36 57 36 56 36 55 35 55 35 54 35 53 34 53 34 52 34 51 34 50 34 49 34 48 35 48 35 47 35 46 36 46 36 45 35 45 35 46 34 46 34 14 35 14 36 14 36 15 37 15 38 15 38 16 39 16 40 16 40 15 41 15 42 15 43 15 44 15 45 15 45 14 46 14 47 14 47 13 48 13 49 13 50 13 51 13 52 13 52 14 53 14 54 14 54 15 55 15 56 15 56 16 57 16 57 17 58 17 59 17 60 17 61 17 61 16 62 16 62 15 62 14 63 14 63 13 64 13 65 13 65 12 65 11 66 11 67 11 68 11 68 10 69 10 70 10 70 9 71 9 72 9 73 9 74 9 75 9 75 10 76 10 77 10 77 11 78 11 79 11 80 11 80 12 80 13 80 14 81 14 82 14 82 15 83 15 84 15 84 16 84 17 84 18 84 19 85 19 85 20 86 20 86 19 87 19 87 18 87 17 88 17 88 16 89 16 89 15 90 15 91 15 91 14 92 14 93 14 93 13 94 13 95 13 96 13 97 13 98 13 98 14 99 14 100 14 100 15 101 15 102 15 102 16 103 16 103 17 104 17 105 17 106 17 107 17 107 16 108 16 108 15 108 14 109 14 109 13 110 13 111 13 111 12 111 11 112 11 113 11 114 11 114 10 115 10 116 10 116 9 117 9 118 9 119 9 120 9 121 9 121 10 122 10 123 10 123 11 124 11 125 11 126 11 126 12 126 13 126 14 127 14 128 14 128 15 129 15 130 15 130 16 130 17 130 18 130 19 131 19 131 20 132 20 133 20 134 20 135 20 136 20 136 21 137 21 138 21 138 22 139 22 140 22 140 23 141 23 141 24 142 24 143 24 144 24 145 24 145 23 146 23 146 22 146 21 147 21 147 20 148 20 149 20 149 19 149 18 150 18 151 18 152 18 152 17 153 17 154 17 154 16 155 16 156 16 157 16 158 16 159 16 159 17 160 17 161 17 161 18 162 18 163 18 164 18 164 19 164 20 164 21 165 21 166 21 166 22 167 22 168 22 168 23 168 24 168 25 168 26 169 26 169 27 169 28 170 28 170 27 170 26 171 26 171 25 171 24 172 24 172 23 173 23 173 22 174 22 175 22 175 21 176 21 177 21 177 20 178 20 179 20 180 20 181 20 182 20 182 21 183 21 184 21 184 22 185 22 186 22 186 23 187 23 187 24 188 24 189 24 190 24 191 24 191 23 192 23 192 22 192 21 193 21 193 20 194 20 195 20 195 19 195 18 196 18 197 18 198 18 198 17 199 17 200 17 200 16 201 16 202 16 203 16 204 16 205 16 205 17 206 17 207 17 207 18 208 18 209 18 210 18 210 19 210 20 210 21 211 21 212 21 212 22 213 22 214 22 214 23 214 24 214 25 215 25 215 24 216 24 217 24 218 24 218 23 219 23 219 22 220 22 221 22 221 21 222 21 223 21 223 20 224 20 225 20 226 20 227 20 228 20 228 21 229 21 230 21 230 22 231 22 232 22 232 23 233 23 233 24 234 24 235 24 236 24 237 24 237 23 238 23 238 22 238 21 239 21 239 20 240 20 241 20 241 19 241 18 242 18 243 18 244 18 244 17 245 17 246 17 246 16 247 16 248 16 249 16 250 16 251 16 251 17 252 17 253 17 253 18 254 18 255 18 256 18 256 19 256 20 256 21 257 21 258 21 258 22 259 22 260 22 260 23 261 23 262 23 262 22 263 22 264 22 265 22 266 22 267 22 267 21 268 21 269 21 269 20 270 20 271 20 272 20 273 20 274 20 274 21 275 21 276 21 276 22 277 22 278 22 278 23 279 23 279 24 280 24 281 24 282 24 283 24 283 23 284 23 284 22 284 21 285 21 285 20 286 20 287 20 287 19 287 18 288 18 289 18 290 18 290 17 291 17 292 17 292 16 293 16 294 16 295 16 296 16 297 16 297 17 298 17 299 17 299 18 300 18 301 18 302 18 302 19 302 20 302 21 303 21 304 21 304 22 305 22 306 22 306 23 306 24 306 25 306 26 307 26 307 27 307 28 308 28 308 27 308 26 309 26 309 25 309 24 310 24 310 23 311 23 311 22 312 22 313 22 313 21 314 21 315 21 315 20 316 20 317 20 318 20 319 20 320 20 320 21 321 21 322 21 322 22 323 22 324 22 324 23 325 23 325 24 326 24 327 24 328 24 329 24 329 23 330 23 330 22 330 21 331 21 331 20 332 20 333 20 333 19 333 18 334 18 335 18 336 18 336 17 337 17 338 17 338 16 339 16 340 16 341 16 342 16 343 16 343 17 344 17 345 17 345 18 346 18 347 18 348 18 348 19 348 20 348 21 349 21 350 21 350 22 351 22 352 22 352 23 353 23 353 22 353 21 354 21 355 21 356 21 356 20 357 20 358 20 358 19 359 19 360 19 361 19 362 19 363 19 363 20 364 20 365 20 365 21 366 21 367 21 368 21 368 22 368 23 368 24 369 24 370 24 370 25 371 25 372 25 372 26 372 27 372 28 372 29 373 29 373 30 373 31 374 31 374 30 374 29 375 29 375 28 375 27 376 27 376 26 377 26 377 25 378 25 379 25 379 24 380 24 381 24 381 23 382 23 383 23 384 23 385 23 386 23 386 24 387 24 388 24 388 25 389 25 390 25 390 26 391 26 391 27 392 27 393 27 394 27 395 27 395 26 396 26 396 25 396 24 397 24 397 23 398 23 399 23 399 22 399 21 400 21 401 21 402 21 402 20 403 20 404 20 404 19 405 19 406 19 407 19 408 19 409 19 409 20 410 20 411 20 411 21 412 21 413 21 414 21 414 22 414 23 414 24 415 24 416 24 416 25 417 25 418 25 418 26 418 27 418 28 418 29 419 29 419 30 419 31 420 31 420 30 420 29 421 29 421 28 421 27 422 27 422 26 423 26 423 25 424 25 425 25 425 24 426 24 427 24 427 23 428 23 429 23 430 23 431 23 432 23 432 24 433 24 434 24 434 25 435 25 436 25 436 26 437 26 437 27 438 27 439 27 440 27 441 27 441 26 442 26 442 25 442 24 443 24 443 23 444 23 445 23 445 51 445 52 444 52" fill="#cfe0e5"/><polygon points="442 38 442 37 441 37 440 37 440 36 439 36 438 36 437 36 437 35 437 34 437 33 436 33 436 32 436 31 435 31 435 30 435 29 434 29 434 28 433 28 433 27 432 27 431 27 431 26 430 26 429 26 429 25 428 25 427 25 426 25 425 25 424 25 424 26 423 26 422 26 422 27 421 27 420 27 420 28 419 28 419 29 418 29 417 29 416 29 415 29 415 28 414 28 414 27 414 26 413 26 413 25 412 25 411 25 411 24 411 23 410 23 409 23 408 23 408 22 407 22 406 22 406 21 405 21 404 21 403 21 402 21 401 21 401 22 400 22 399 22 399 23 398 23 397 23 396 23 396 24 396 25 396 26 395 26 394 26 394 27 393 27 392 27 392 28 392 29 392 30 392 31 391 31 391 32 391 33 391 34 391 35 391 36 390 36 389 36 388 36 388 35 388 34 387 34 387 33 387 32 386 32 386 31 385 31 385 30 384 30 383 30 383 29 382 29 382 28 383 28 383 27 383 26 383 25 383 24 383 23 383 22 383 21 382 21 382 20 382 19 381 19 381 18 380 18 380 17 379 17 379 16 378 16 377 16 376 16 376 15 375 15 374 15 373 15 372 15 372 14 372 13 371 13 371 12 371 11 370 11 370 10 370 9 369 9 369 8 368 8 368 7 367 7 366 7 366 6 365 6 365 5 364 5 363 5 362 5 361 5 360 5 360 6 359 6 358 6 358 7 357 7 356 7 356 8 355 8 355 9 354 9 354 10 354 11 353 11 353 12 353 13 352 13 352 14 352 15 352 16 352 17 352 18 353 18 353 19 353 20 354 20 354 21 354 22 355 22 355 23 356 23 356 24 355 24 354 24 353 24 353 25 352 25 351 25 351 26 350 26 349 26 348 26 348 27 348 28 348 29 347 29 346 29 346 30 345 30 344 30 344 31 344 32 344 33 344 34 343 34 343 35 343 36 342 36 341 36 341 37 340 37 339 37 339 38 338 38 338 39 337 39 337 40 336 40 336 41 336 42 336 43 335 43 335 44 335 45 334 45 334 44 334 43 333 43 332 43 332 42 331 42 331 41 330 41 330 40 329 40 328 40 328 39.5 328.5 39.5 328.5 38.5 329.5 38.5 329.5 37.5 329.5 36.5 330.5 36.5 330.5 35.5 330.5 34.5 330.5 33.5 330.5 32.5 330.5 31.5 330.5 30.5 330.5 29.5 329.5 29.5 329.5 28.5 329.5 27.5 328.5 27.5 328.5 26.5 327.5 26.5 327.5 25.5 326.5 25.5 326.5 24.5 325.5 24.5 324.5 24.5 323.5 24.5 323.5 23.5 322.5 23.5 321.5 23.5 320.5 23.5 319.5 23.5 319.5 22.5 319.5 21.5 318.5 21.5 318.5 20.5 318.5 19.5 317.5 19.5 317.5 18.5 317.5 17.5 316.5 17.5 316.5 16.5 315.5 16.5 315.5 15.5 314.5 15.5 313.5 15.5 313.5 14.5 312.5 14.5 312.5 13.5 311.5 13.5 310.5 13.5 309.5 13.5 308.5 13.5 307.5 13.5 307.5 14.5 306.5 14.5 305.5 14.5 305.5 15.5 304.5 15.5 303.5 15.5 303.5 16.5 302.5 16.5 302.5 17.5 301.5 17.5 301.5 18.5 301.5 19.5 300.5 19.5 300.5 20.5 300.5 21 300 21 300 20 300 19 299 19 299 18 298 18 298 17 297 17 297 16 296 16 295 16 294 16 294 15 293 15 292 15 291 15 290 15 290 14 290 13 289 13 289 12 289 11 288 11 288 10 288 9 287 9 287 8 286 8 286 7 285 7 284 7 284 6 283 6 283 5 282 5 281 5 280 5 279 5 278 5 278 6 277 6 276 6 276 7 275 7 274 7 274 8 273 8 273 9 272 9 272 10 272 11 271 11 271 12 271 13 270 13 270 14 270 15 270 16 270 17 270 18 271 18 271 19 271 20 272 20 272 21 272 22 273 22 273 23 274 23 274 24 274 25 274 26 274 27 273 27 273 28 272 28 272 27 272 26 271 26 271 25 270 25 270 24 269 24 268 24 268 23 267 23 267 22 266 22 265 22 264 22 263 22 262 22 262 23 261 23 260 23 260 24 259 24 258 24 258 25 257 25 257 26 256 26 256 27 256 28 255 28 255 29 255 30 254 30 254 31 254 32 254 33 254 34 254 35 255 35 255 36 255 37 256 37 256 38 255 38 255 37 254 37 253 37 252 37 252 36 251 36 250 36 249 36 248 36 247 36 247 35 247 34 247 33 246 33 246 32 246 31 245 31 244 31 244 30 243 30 243 29 242 29 242 28 241 28 240 28 240 27 239 27 238 27 237 27 236 27 235 27 234 27 233 27 233 28 232 28 231 28 231 29 230 29 230 30 229 30 229 29 229 28 228 28 228 27 228 26 228 25 227 25 226 25 225 25 225 24 225 23 224 23 224 22 224 21 223 21 222 21 221 21 220 21 220 20 219 20 218 20 217 20 216 20 215 20 214 20 213 20 213 21 212 21 211 21 210 21 210 22 209 22 208 22 208 23 208 24 207 24 207 25 206 25 206 26 206 27 206 28 205 28 205 29 205 30 205 31 204 31 204 32 204 33 204 34 204 35 204 36 203 36 202 36 201 36 201 37 200 37 199 37 199 38 199 39 198 39 198 40 197 40 197 41 196 41 196 42 196 43 195 43 194 43 194 42 193 42 193 41 192 41 192 40 191 40 190 40 190 39 189 39 188 39 187 39 187 38 187 37 187 36 186 36 186 35 186 34 185 34 185 33 185 32 184 32 184 31 183 31 183 30 182 30 181 30 181 29 180 29 179 29 179 28 178 28 177 28 176 28 175 28 174 28 174 29 173 29 172 29 172 30 171 30 170 30 170 31 169 31 169 32 168 32 167 32 166 32 165 32 165 31 164 31 164 30 164 29 163 29 163 28 162 28 161 28 161 27 161 26 160 26 159 26 158 26 158 25 157 25 156 25 156 24 155 24 154 24 153 24 152 24 151 24 151 25 150 25 149 25 149 26 148 26 147 26 146 26 146 27 146 28 146 29 145 29 144 29 144 30 143 30 142 30 142 31 142 32 142 33 142 34 141 34 141 35 141 36 141 37 141 38 141 39 140 39 139 39 138 39 138 38 138 37 137 37 137 36 137 35 136 35 136 34 135 34 135 33 134 33 133 33 133 32 132 32 132 31 133 31 133 30 133 29 133 28 133 27 133 26 133 25 133 24 132 24 132 23 132 22 131 22 131 21 130 21 130 20 129 20 129 19 128 19 127 19 126 19 126 18 125 18 124 18 123 18 122 18 122 17 122 16 121 16 121 15 121 14 120 14 120 13 120 12 119 12 119 11 118 11 118 10 117 10 116 10 116 9 115 9 115 8 114 8 113 8 112 8 111 8 110 8 110 9 109 9 108 9 108 10 107 10 106 10 106 11 105 11 105 12 104 12 104 13 104 14 103 14 103 15 103 16 102 16 102 17 102 18 102 19 102 20 102 21 103 21 103 22 103 23 104 23 104 24 104 25 105 25 105 26 106 26 106 27 105 27 104 27 103 27 103 28 102 28 101 28 101 29 100 29 99 29 98 29 98 30 98 30.5 97.5 30.5 97.5 29.5 97.5 28.5 96.5 28.5 96.5 27.5 96.5 26.5 95.5 26.5 95.5 25.5 95.5 24.5 94.5 24.5 94.5 23.5 93.5 23.5 93.5 22.5 92.5 22.5 91.5 22.5 91.5 21.5 90.5 21.5 90.5 20.5 89.5 20.5 88.5 20.5 87.5 20.5 86.5 20.5 85.5 20.5 85.5 21.5 84.5 21.5 83.5 21.5 83.5 22.5 82.5 22.5 81.5 22.5 81.5 23.5 80.5 23.5 80.5 24.5 79.5 24.5 79.5 25.5 79.5 26.5 78.5 26.5 78.5 27.5 78.5 28 78 28 78 27 78 26 77 26 77 25 76 25 76 24 75 24 75 23 74 23 73 23 72 23 72 22 71 22 70 22 69 22 68 22 68 21 68 20 67 20 67 19 67 18 66 18 66 17 66 16 65 16 65 15 64 15 64 14 63 14 62 14 62 13 61 13 61 12 60 12 59 12 58 12 57 12 56 12 56 13 55 13 54 13 54 14 53 14 52 14 52 15 51 15 51 16 50 16 50 17 50 18 49 18 49 19 49 20 48 20 48 21 48 22 48 23 48 24 48 25 49 25 49 26 49 27 50 27 50 28 50 29 51 29 51 30 52 30 52 31 52 32 52 33 52 34 51 34 51 35 50 35 50 34 50 33 49 33 49 32 48 32 48 31 47 31 46 31 46 30 45 30 45 29 44 29 43 29 42 29 41 29 40 29 40 30 39 30 38 30 38 31 37 31 36 31 36 32 35 32 35 33 34 33 34 34 34 35 33 35 33 36 33 37 32 37 32 38 32 39 32 40 32 41 32 42 33 42 33 43 33 44 34 44 34 45 33 45 33 44 32 44 32 76 33 76 34 76 34 75 35 75 36 75 36 74 37 74 38 74 38 75 39 75 40 75 41 75 42 75 43 75 43 76 44 76 45 76 45 77 46 77 47 77 48 77 49 77 50 77 50 76 51 76 52 76 52 75 53 75 54 75 54 74 55 74 55 73 56 73 57 73 58 73 59 73 59 74 60 74 60 75 60 76 61 76 61 77 62 77 63 77 63 78 63 79 64 79 65 79 66 79 66 80 67 80 68 80 68 81 69 81 70 81 71 81 72 81 73 81 73 80 74 80 75 80 75 79 76 79 77 79 78 79 78 78 78 77 78 76 79 76 80 76 80 75 81 75 82 75 82 74 82 73 82 72 82 71 83 71 83 70 84 70 84 71 85 71 85 72 85 73 86 73 86 74 87 74 87 75 88 75 89 75 89 76 90 76 91 76 91 77 92 77 93 77 94 77 95 77 96 77 96 76 97 76 98 76 98 75 99 75 100 75 100 74 101 74 101 73 102 73 103 73 104 73 105 73 105 74 106 74 106 75 106 76 107 76 107 77 108 77 109 77 109 78 109 79 110 79 111 79 112 79 112 80 113 80 114 80 114 81 115 81 116 81 117 81 118 81 119 81 119 80 120 80 121 80 121 79 122 79 123 79 124 79 124 78 124 77 124 76 125 76 126 76 126 75 127 75 128 75 128 74 128 73 128 72 128 71 129 71 129 70 130 70 131 70 132 70 133 70 134 70 134 69 135 69 136 69 136 68 137 68 138 68 138 67 139 67 139 66 140 66 141 66 142 66 143 66 143 67 144 67 144 68 144 69 145 69 145 70 146 70 147 70 147 71 147 72 148 72 149 72 150 72 150 73 151 73 152 73 152 74 153 74 154 74 155 74 156 74 157 74 157 73 158 73 159 73 159 72 160 72 161 72 162 72 162 71 162 70 162 69 163 69 164 69 164 68 165 68 166 68 166 67 166 66 166 65 166 64 167 64 167 63 167 62 168 62 168 63 168 64 169 64 169 65 169 66 170 66 170 67 171 67 171 68 172 68 173 68 173 69 174 69 175 69 175 70 176 70 177 70 178 70 179 70 180 70 180 69 181 69 182 69 182 68 183 68 184 68 184 67 185 67 185 66 186 66 187 66 188 66 189 66 189 67 190 67 190 68 190 69 191 69 191 70 192 70 193 70 193 71 193 72 194 72 195 72 196 72 196 73 197 73 198 73 198 74 199 74 200 74 201 74 202 74 203 74 203 73 204 73 205 73 205 72 206 72 207 72 208 72 208 71 208 70 208 69 209 69 210 69 210 68 211 68 212 68 212 67 212 66 212 65 213 65 213 66 214 66 215 66 216 66 216 67 217 67 217 68 218 68 219 68 219 69 220 69 221 69 221 70 222 70 223 70 224 70 225 70 226 70 226 69 227 69 228 69 228 68 229 68 230 68 230 67 231 67 231 66 232 66 233 66 234 66 235 66 235 67 236 67 236 68 236 69 237 69 237 70 238 70 239 70 239 71 239 72 240 72 241 72 242 72 242 73 243 73 244 73 244 74 245 74 246 74 247 74 248 74 249 74 249 73 250 73 251 73 251 72 252 72 253 72 254 72 254 71 254 70 254 69 255 69 256 69 256 68 257 68 258 68 258 67 259 67 260 67 260 68 261 68 262 68 263 68 264 68 265 68 265 69 266 69 267 69 267 70 268 70 269 70 270 70 271 70 272 70 272 69 273 69 274 69 274 68 275 68 276 68 276 67 277 67 277 66 278 66 279 66 280 66 281 66 281 67 282 67 282 68 282 69 283 69 283 70 284 70 285 70 285 71 285 72 286 72 287 72 288 72 288 73 289 73 290 73 290 74 291 74 292 74 293 74 294 74 295 74 295 73 296 73 297 73 297 72 298 72 299 72 300 72 300 71 300 70 300 69 301 69 302 69 302 68 303 68 304 68 304 67 304 66 304 65 304 64 305 64 305 63 305 62 306 62 306 63 306 64 307 64 307 65 307 66 308 66 308 67 309 67 309 68 310 68 311 68 311 69 312 69 313 69 313 70 314 70 315 70 316 70 317 70 318 70 318 69 319 69 320 69 320 68 321 68 322 68 322 67 323 67 323 66 324 66 325 66 326 66 327 66 327 67 328 67 328 68 328 69 329 69 329 70 330 70 331 70 331 71 331 72 332 72 333 72 334 72 334 73 335 73 336 73 336 74 337 74 338 74 339 74 340 74 341 74 341 73 342 73 343 73 343 72 344 72 345 72 346 72 346 71 346 70 346 69 347 69 348 69 348 68 349 68 350 68 350 67 351 67 351 68 351 69 352 69 353 69 354 69 354 70 355 70 356 70 356 71 357 71 358 71 359 71 360 71 361 71 361 70 362 70 363 70 363 69 364 69 365 69 366 69 366 68 366 67 366 66 367 66 368 66 368 65 369 65 370 65 370 64 370 63 370 62 370 61 371 61 371 60 371 59 372 59 372 60 372 61 373 61 373 62 373 63 374 63 374 64 375 64 375 65 376 65 377 65 377 66 378 66 379 66 379 67 380 67 381 67 382 67 383 67 384 67 384 66 385 66 386 66 386 65 387 65 388 65 388 64 389 64 389 63 390 63 391 63 392 63 393 63 393 64 394 64 394 65 394 66 395 66 395 67 396 67 397 67 397 68 397 69 398 69 399 69 400 69 400 70 401 70 402 70 402 71 403 71 404 71 405 71 406 71 407 71 407 70 408 70 409 70 409 69 410 69 411 69 412 69 412 68 412 67 412 66 413 66 414 66 414 65 415 65 416 65 416 64 416 63 416 62 416 61 417 61 417 60 417 59 418 59 418 60 418 61 419 61 419 62 419 63 420 63 420 64 421 64 421 65 422 65 423 65 423 66 424 66 425 66 425 67 426 67 427 67 428 67 429 67 430 67 430 66 431 66 432 66 432 65 433 65 434 65 434 64 435 64 435 63 436 63 437 63 438 63 439 63 439 64 440 64 440 65 440 66 441 66 441 67 442 67 443 67 443 39 443 38 442 38" fill="#daebf2"/><polygon points="479 53 479 52 479 51 479 50 478 50 478 49 478 48 477 48 476 48 476 47 475 47 475 46 474 46 473 46 472 46 472 45 471 45 470 45 469 45 469 44 468 44 467 44 466 44 465 44 464 44 464 43 464 42 464 41 463 41 463 40 463 39 462 39 461 39 461 38 460 38 460 37 459 37 459 36 458 36 457 36 457 35.5 457.5 35.5 457.5 34.5 458.5 34.5 458.5 33.5 458.5 32.5 459.5 32.5 459.5 31.5 459.5 30.5 459.5 29.5 459.5 28.5 459.5 27.5 459.5 26.5 459.5 25.5 458.5 25.5 458.5 24.5 458.5 23.5 457.5 23.5 457.5 22.5 456.5 22.5 456.5 21.5 455.5 21.5 455.5 20.5 454.5 20.5 453.5 20.5 452.5 20.5 452.5 19.5 451.5 19.5 450.5 19.5 449.5 19.5 448.5 19.5 448.5 18.5 448.5 17.5 447.5 17.5 447.5 16.5 447.5 15.5 446.5 15.5 446.5 14.5 446.5 13.5 445.5 13.5 445.5 12.5 444.5 12.5 444.5 11.5 443.5 11.5 442.5 11.5 442.5 10.5 441.5 10.5 441.5 9.5 440.5 9.5 439.5 9.5 438.5 9.5 437.5 9.5 436.5 9.5 436.5 10.5 435.5 10.5 434.5 10.5 434.5 11.5 433.5 11.5 432.5 11.5 432.5 12.5 431.5 12.5 431.5 13.5 430.5 13.5 430.5 14.5 430.5 15.5 429.5 15.5 429.5 16.5 429.5 17 429 17 429 16 429 15 428 15 428 14 427 14 427 13 426 13 426 12 425 12 424 12 423 12 423 11 422 11 421 11 420 11 419 11 419 10 419 9 418 9 418 8 418 7 417 7 417 6 417 5 416 5 416 4 415 4 415 3 414 3 413 3 413 2 412 2 412 1 411 1 410 1 409 1 408 1 407 1 407 2 406 2 405 2 405 3 404 3 403 3 403 4 402 4 402 5 401 5 401 6 401 7 400 7 400 8 400 9 399 9 399 10 399 11 399 12 399 13 399 14 400 14 400 15 400 16 401 16 401 17 401 18 402 18 402 19 403 19 403 20 403 21 403 22 403 23 402 23 402 24 401 24 401 23 401 22 400 22 400 21 399 21 399 20 398 20 397 20 397 19 396 19 396 18 395 18 394 18 393 18 392 18 391 18 391 19 390 19 389 19 389 20 388 20 387 20 387 21 386 21 386 22 385 22 385 23 385 24 384 24 384 25 384 26 383 26 383 27 383 28 383 29 383 30 383 31 384 31 384 32 384 33 385 33 385 34 384 34 384 33 383 33 382 33 381 33 381 32 380 32 379 32 378 32 377 32 376 32 376 31 376 30 376 29 375 29 375 28 375 27 374 27 373 27 373 26 372 26 372 25 371 25 371 24 370 24 369 24 369 23 368 23 367 23 366 23 365 23 364 23 363 23 362 23 362 24 361 24 360 24 360 25 359 25 359 26 358 26 358 25 358 24 357 24 357 23 357 22 357 21 356 21 355 21 354 21 354 20 354 19 353 19 353 18 353 17 352 17 351 17 350 17 349 17 349 16 348 16 347 16 346 16 345 16 344 16 343 16 342 16 342 17 341 17 340 17 339 17 339 18 338 18 337 18 337 19 337 20 336 20 336 21 335 21 335 22 335 23 335 24 334 24 334 25 334 26 334 27 333 27 333 28 333 29 333 30 333 31 333 32 332 32 331 32 330 32 330 33 329 33 328 33 328 34 328 35 327 35 327 36 326 36 326 37 325 37 325 38 325 39 324 39 323 39 323 38 322 38 322 37 321 37 321 36 320 36 319 36 319 35 318 35 317 35 316 35 316 34 316 33 316 32 315 32 315 31 315 30 314 30 314 29 314 28 313 28 313 27 312 27 312 26 311 26 310 26 310 25 309 25 308 25 308 24 307 24 306 24 305 24 304 24 303 24 303 25 302 25 301 25 301 26 300 26 299 26 299 27 298 27 298 28 297 28 296 28 295 28 294 28 294 27 293 27 293 26 293 25 292 25 292 24 291 24 290 24 290 23 290 22 289 22 288 22 287 22 287 21 286 21 285 21 285 20 284 20 283 20 282 20 281 20 280 20 280 21 279 21 278 21 278 22 277 22 276 22 275 22 275 23 275 24 275 25 274 25 273 25 273 26 272 26 271 26 271 27 271 28 271 29 271 30 270 30 270 31 270 32 270 33 270 34 270 35 269 35 268 35 267 35 267 34 267 33 266 33 266 32 266 31 265 31 265 30 264 30 264 29 263 29 262 29 262 28 261 28 261 27 262 27 262 26 262 25 262 24 262 23 262 22 262 21 262 20 261 20 261 19 261 18 260 18 260 17 259 17 259 16 258 16 258 15 257 15 256 15 255 15 255 14 254 14 253 14 252 14 251 14 251 13 251 12 250 12 250 11 250 10 249 10 249 9 249 8 248 8 248 7 247 7 247 6 246 6 245 6 245 5 244 5 244 4 243 4 242 4 241 4 240 4 239 4 239 5 238 5 237 5 237 6 236 6 235 6 235 7 234 7 234 8 233 8 233 8.5 232.5 8.5 232.5 9.5 231.5 9.5 230.5 9.5 230.5 10.5 229.5 10.5 228.5 10.5 228.5 11.5 227.5 11.5 227.5 12.5 226.5 12.5 226.5 13.5 226.5 14.5 225.5 14.5 225.5 15.5 225.5 16 225 16 225 15 225 14 224 14 224 13 223 13 223 12 222 12 222 11 221 11 220 11 219 11 219 10 218 10 217 10 216 10 215 10 215 9 215 8 214 8 214 7 214 6 213 6 213 5 213 4 212 4 212 3 211 3 211 2 210 2 209 2 209 1 208 1 208 0 207 0 206 0 205 0 204 0 203 0 203 1 202 1 201 1 201 2 200 2 199 2 199 3 198 3 198 4 197 4 197 5 197 6 196 6 196 7 196 8 195 8 195 9 195 10 195 11 195 12 195 13 196 13 196 14 196 15 197 15 197 16 197 17 198 17 198 18 199 18 199 19 199 20 199 21 199 22 198 22 198 23 197 23 197 22 197 21 196 21 196 20 195 20 195 19 194 19 193 19 193 18 192 18 192 17 191 17 190 17 189 17 188 17 187 17 187 18 186 18 185 18 185 19 184 19 183 19 183 20 182 20 182 21 181 21 181 22 181 23 180 23 180 24 180 25 179 25 179 26 179 27 179 28 179 29 179 30 180 30 180 31 180 32 181 32 181 33 180 33 180 32 179 32 178 32 177 32 177 31 176 31 175 31 174 31 173 31 172 31 172 30 172 29 172 28 171 28 171 27 171 26 170 26 169 26 169 25 168 25 168 24 167 24 167 23 166 23 165 23 165 22 164 22 163 22 162 22 161 22 160 22 159 22 158 22 158 23 157 23 156 23 156 24 155 24 155 25 154 25 154 24 154 23 153 23 153 22 153 21 153 20 152 20 151 20 150 20 150 19 150 18 149 18 149 17 149 16 148 16 147 16 146 16 145 16 145 15 144 15 143 15 142 15 141 15 140 15 139 15 138 15 138 16 137 16 136 16 135 16 135 17 134 17 133 17 133 18 133 19 132 19 132 20 131 20 131 21 131 22 131 23 130 23 130 24 130 25 130 26 129 26 129 27 129 28 129 29 129 30 129 31 128 31 127 31 126 31 126 32 125 32 124 32 124 33 124 34 123 34 123 35 122 35 122 36 121 36 121 37 121 38 120 38 119 38 119 37 118 37 118 36 117 36 117 35 116 35 115 35 115 34 114 34 113 34 112 34 112 33 112 32 112 31 111 31 111 30 111 29 110 29 110 28 110 27 109 27 109 26 108 26 108 25 107 25 106 25 106 24 105 24 104 24 104 23 103 23 102 23 101 23 100 23 99 23 99 24 98 24 97 24 97 25 96 25 95 25 95 26 94 26 94 27 93 27 92 27 91 27 90 27 90 26 89 26 89 25 89 24 88 24 88 23 87 23 86 23 86 22 86 21 85 21 84 21 83 21 83 20 82 20 81 20 81 19 80 19 79 19 78 19 77 19 76 19 76 20 75 20 74 20 74 21 73 21 72 21 71 21 71 22 71 23 71 24 70 24 69 24 69 25 68 25 67 25 67 26 67 27 67 28 67 29 66 29 66 30 66 31 66 32 66 33 66 34 65 34 64 34 63 34 63 33 63 32 62 32 62 31 62 30 61 30 61 29 60 29 60 28 59 28 58 28 58 27 57 27 57 26 58 26 58 25 58 24 58 23 58 22 58 21 58 20 58 19 57 19 57 18 57 17 56 17 56 16 55 16 55 15 54 15 54 14 53 14 52 14 51 14 51 13 50 13 49 13 48 13 47 13 47 12 47 11 46 11 46 10 46 9 45 9 45 8 45 7 44 7 44 6 43 6 43 5 42 5 41 5 41 4 40 4 40 3 39 3 38 3 37 3 36 3 35 3 35 4 34 4 33 4 33 5 32 5 31 5 31 6 30 6 30 7 29 7 29 8 29 9 28 9 28 10 28 11 27 11 27 12 27 13 27 14 27 15 27 16 28 16 28 17 28 18 29 18 29 19 29 20 30 20 30 21 31 21 31 22 30 22 29 22 28 22 28 23 27 23 26 23 26 24 25 24 24 24 23 24 23 25 23 26 23 27 22 27 21 27 21 28 20 28 19 28 19 29 19 30 19 31 19 32 18 32 18 33 18 34 17 34 16 34 16 35 15 35 14 35 14 36 13 36 13 37 12 37 12 38 11 38 11 39 11 40 11 41 10 41 10 42 10 43 10 44 10 45 9 45 8 45 8 46 7 46 6 46 6 47 5 47 4 47 4 48 3 48 3 49 2 49 2 50 2 51 1 51 1 52 0 52 0 53 0 54 0 55 0 56 0 57 1 57 1 58 1 59 2 59 2 60 2 61 3 61 3 62 4 62 4 63 5 63 6 63 6 64 7 64 8 64 8 65 9 65 10 65 11 65 12 65 13 65 13 64 14 64 15 64 15 63 16 63 17 63 17 62 18 62 18 61 19 61 20 61 21 61 22 61 22 62 23 62 23 63 23 64 24 64 24 65 25 65 26 65 26 66 26 67 27 67 28 67 29 67 29 68 30 68 31 68 31 69 32 69 33 69 34 69 35 69 36 69 36 68 37 68 38 68 38 67 39 67 40 67 41 67 41 66 41 65 41 64 42 64 43 64 43 63 44 63 45 63 45 62 45 61 45 60 45 59 46 59 46 58 46 57 47 57 47 58 47 59 48 59 48 60 48 61 49 61 49 62 50 62 50 63 51 63 52 63 52 64 53 64 54 64 54 65 55 65 56 65 57 65 58 65 59 65 59 64 60 64 61 64 61 63 62 63 63 63 63 62 64 62 64 61 65 61 66 61 67 61 68 61 68 62 69 62 69 63 69 64 70 64 70 65 71 65 72 65 72 66 72 67 73 67 74 67 75 67 75 68 76 68 77 68 77 69 78 69 79 69 80 69 81 69 82 69 82 68 83 68 84 68 84 67 85 67 86 67 87 67 87 66 87 65 87 64 88 64 89 64 89 63 90 63 91 63 91 62 91 61 91 60 91 59 92 59 92 58 92 57 93 57 93 58 93 59 94 59 94 60 94 61 95 61 95 62 96 62 96 63 97 63 98 63 98 64 99 64 100 64 100 65 101 65 102 65 103 65 104 65 105 65 105 64 106 64 107 64 107 63 108 63 109 63 109 62 110 62 110 61 111 61 112 61 113 61 114 61 114 62 115 62 115 63 115 64 116 64 116 65 117 65 118 65 118 66 118 67 119 67 120 67 121 67 121 68 122 68 123 68 123 69 124 69 125 69 126 69 127 69 128 69 128 68 129 68 130 68 130 67 131 67 132 67 133 67 133 66 133 65 133 64 134 64 135 64 135 63 136 63 137 63 137 62 137 61 137 60 138 60 138 61 139 61 140 61 141 61 141 62 142 62 142 63 143 63 144 63 144 64 145 64 146 64 146 65 147 65 148 65 149 65 150 65 151 65 151 64 152 64 153 64 153 63 154 63 155 63 155 62 156 62 156 61 157 61 158 61 159 61 160 61 160 62 161 62 161 63 161 64 162 64 162 65 163 65 164 65 164 66 164 67 165 67 166 67 167 67 167 68 168 68 169 68 169 69 170 69 171 69 172 69 173 69 174 69 174 68 175 68 176 68 176 67 177 67 178 67 179 67 179 66 179 65 179 64 180 64 181 64 181 63 182 63 183 63 183 62 184 62 185 62 185 63 186 63 187 63 188 63 189 63 190 63 190 64 191 64 192 64 192 65 193 65 194 65 195 65 196 65 197 65 197 64 198 64 199 64 199 63 200 63 201 63 201 62 202 62 202 61 203 61 204 61 205 61 206 61 206 62 207 62 207 63 207 64 208 64 208 65 209 65 210 65 210 66 210 67 211 67 212 67 213 67 213 68 214 68 215 68 215 69 216 69 217 69 218 69 219 69 220 69 220 68 221 68 222 68 222 67 223 67 224 67 225 67 225 66 225 65 225 64 226 64 227 64 227 65 228 65 228 66 229 66 230 66 230 67 230 68 231 68 232 68 233 68 233 69 234 69 235 69 235 70 236 70 237 70 238 70 239 70 240 70 240 69 241 69 242 69 242 68 243 68 244 68 245 68 245 67 245 66 245 65 246 65 247 65 247 64 248 64 249 64 249 63 249 62 249 61 250 61 251 61 252 61 252 62 253 62 253 63 253 64 254 64 254 65 255 65 256 65 256 66 256 67 257 67 258 67 259 67 259 68 260 68 261 68 261 69 262 69 263 69 264 69 265 69 266 69 266 68 267 68 268 68 268 67 269 67 270 67 271 67 271 66 271 65 271 64 272 64 273 64 273 65 274 65 274 66 275 66 276 66 276 67 276 68 277 68 278 68 279 68 279 69 280 69 281 69 281 70 282 70 283 70 284 70 285 70 286 70 286 69 287 69 288 69 288 68 289 68 290 68 291 68 291 67 291 66 291 65 292 65 293 65 293 64 294 64 295 64 295 63 295 62 295 61 295 60 296 60 296 59 296 58 297 58 297 59 297 60 298 60 298 61 298 62 299 62 299 63 300 63 300 64 301 64 302 64 302 65 303 65 304 65 304 66 305 66 306 66 307 66 308 66 309 66 309 65 310 65 311 65 311 64 312 64 313 64 313 63 314 63 314 62 315 62 316 62 317 62 318 62 318 63 319 63 319 64 319 65 320 65 320 66 321 66 322 66 322 67 322 68 323 68 324 68 325 68 325 69 326 69 327 69 327 70 328 70 329 70 330 70 331 70 332 70 332 69 333 69 334 69 334 68 335 68 336 68 337 68 337 67 337 66 337 65 338 65 339 65 339 64 340 64 341 64 341 63 341 62 341 61 342 61 342 62 343 62 344 62 345 62 345 63 346 63 346 64 347 64 348 64 348 65 349 65 350 65 350 66 351 66 352 66 353 66 354 66 355 66 355 65 356 65 357 65 357 64 358 64 359 64 359 63 360 63 360 62 361 62 362 62 363 62 364 62 364 63 365 63 365 64 365 65 366 65 366 66 367 66 368 66 368 67 368 68 369 68 370 68 371 68 371 69 372 69 373 69 373 70 374 70 375 70 376 70 377 70 378 70 378 69 379 69 380 69 380 68 381 68 382 68 383 68 383 67 383 66 383 65 384 65 385 65 385 64 386 64 387 64 387 63 388 63 389 63 389 64 390 64 391 64 392 64 393 64 394 64 394 65 395 65 396 65 396 66 397 66 398 66 399 66 400 66 401 66 401 65 402 65 403 65 403 64 404 64 405 64 405 63 406 63 406 62 407 62 408 62 409 62 410 62 410 63 411 63 411 64 411 65 412 65 412 66 413 66 414 66 414 67 414 68 415 68 416 68 417 68 417 69 418 69 419 69 419 70 420 70 421 70 422 70 423 70 424 70 424 69 425 69 426 69 426 68 427 68 428 68 429 68 429 67 429 66 429 65 430 65 431 65 431 64 432 64 433 64 433 63 433 62 433 61 433 60 434 60 434 59 434 58 435 58 435 59 435 60 436 60 436 61 436 62 437 62 437 63 438 63 438 64 439 64 440 64 440 65 441 65 442 65 442 66 443 66 444 66 445 66 446 66 447 66 447 65 448 65 449 65 449 64 450 64 451 64 451 63 452 63 452 62 453 62 454 62 455 62 456 62 456 63 457 63 457 64 457 65 458 65 458 66 459 66 460 66 460 67 460 68 461 68 462 68 463 68 463 69 464 69 465 69 465 70 466 70 467 70 468 70 469 70 470 70 470 69 471 69 472 69 472 68 473 68 474 68 475 68 475 67 475 66 475 65 476 65 477 65 477 64 478 64 479 64 479 63 479 62 479 61 479 60 480 60 480 59 480 58 480 57 480 56 480 55 480 54 480 53 479 53" fill="#fff"/></svg>