<svg id="Game_Over" data-name="Game Over" xmlns="http://www.w3.org/2000/svg" viewBox="0 0 95 22"><title>game_over</title><g id="Bevel"><rect x="55" y="17" width="1" height="1" fill="#e36c29"/><rect x="56" y="18" width="1" height="1" fill="#e36c29"/><polygon points="60 19 59 19 58 19 57 19 57 20 58 20 59 20 60 20 61 20 62 20 62 19 61 19 60 19" fill="#e36c29"/><rect x="62" y="18" width="1" height="1" fill="#e36c29"/><rect x="59" y="5" width="1" height="1" fill="#e36c29"/><rect x="63" y="17" width="1" height="1" fill="#e36c29"/><polygon points="68 19 67 19 66 19 65 19 65 20 66 20 67 20 68 20 69 20 70 20 70 19 69 19 68 19" fill="#e36c29"/><rect x="70" y="18" width="1" height="1" fill="#e36c29"/><rect x="72" y="16" width="1" height="1" fill="#e36c29"/><rect x="73" y="15" width="1" height="1" fill="#e36c29"/><rect x="71" y="17" width="1" height="1" fill="#e36c29"/><rect x="79" y="9" width="1" height="1" fill="#e36c29"/><rect x="75" y="17" width="1" height="1" fill="#e36c29"/><rect x="76" y="18" width="1" height="1" fill="#e36c29"/><polygon points="78 19 77 19 77 20 78 20 79 20 80 20 80 19 79 19 78 19" fill="#e36c29"/><polygon points="87 19 86 19 85 19 85 20 86 20 87 20 88 20 89 20 89 19 88 19 87 19" fill="#e36c29"/><polygon points="82 14 81 14 80 14 80 15 81 15 82 15 83 15 84 15 84 14 83 14 82 14" fill="#e36c29"/><polygon points="92 10 91 10 90 10 89 10 89 11 90 11 91 11 92 11 93 11 93 10 92 10" fill="#e36c29"/><rect x="2" y="17" width="1" height="1" fill="#e36c29"/><rect x="3" y="18" width="1" height="1" fill="#e36c29"/><polygon points="9 19 8 19 7 19 6 19 5 19 4 19 4 20 5 20 6 20 7 20 8 20 9 20 10 20 11 20 11 19 10 19 9 19" fill="#e36c29"/><polygon points="9 5 8 5 7 5 6 5 6 6 7 6 8 6 9 6 10 6 11 6 11 5 10 5 9 5" fill="#e36c29"/><rect x="16" y="10" width="1" height="1" fill="#e36c29"/><polygon points="19 19 18 19 17 19 16 19 15 19 14 19 14 20 15 20 16 20 17 20 18 20 19 20 20 20 21 20 21 19 20 19 19 19" fill="#e36c29"/><rect x="26" y="10" width="1" height="1" fill="#e36c29"/><rect x="31" y="10" width="1" height="1" fill="#e36c29"/><rect x="41" y="9" width="1" height="1" fill="#e36c29"/><polygon points="24 19 23 19 22 19 22 20 23 20 24 20 25 20 26 20 26 19 25 19 24 19" fill="#e36c29"/><polygon points="29 19 28 19 27 19 27 20 28 20 29 20 30 20 31 20 31 19 30 19 29 19" fill="#e36c29"/><polygon points="34 19 33 19 32 19 32 20 33 20 34 20 35 20 36 20 36 19 35 19 34 19" fill="#e36c29"/><rect x="37" y="17" width="1" height="1" fill="#e36c29"/><rect x="38" y="18" width="1" height="1" fill="#e36c29"/><polygon points="40 19 39 19 39 20 40 20 41 20 42 20 42 19 41 19 40 19" fill="#e36c29"/><polygon points="44 14 43 14 42 14 42 15 43 15 44 15 45 15 46 15 46 14 45 14 44 14" fill="#e36c29"/><rect x="12" y="17" width="1" height="1" fill="#e36c29"/><rect x="13" y="18" width="1" height="1" fill="#e36c29"/></g><g id="Face"><polygon points="72 6 71 6 70 6 70 7 70 8 70 9 70 10 70 11 70 12 70 13 70 14 70 15 70 16 69 16 69 15 69 14 69 13 69 12 69 11 69 10 69 9 69 8 69 7 69 6 68 6 67 6 66 6 65 6 65 7 65 8 65 9 65 10 65 11 65 12 65 13 65 14 65 15 65 16 65 17 65 18 65 19 66 19 67 19 68 19 69 19 70 19 70 18 71 18 71 17 72 17 72 16 73 16 73 15 74 15 74 14 74 13 74 12 74 11 74 10 74 9 74 8 74 7 74 6 73 6 72 6" fill="#f7a149"/><path d="M63,3H62V2H57V3H56V4H55V17h1v1h1v1h5V18h1V17h1V4H63ZM60,6V16H59V5h1Z" fill="#f7a149"/><path d="M83,6V5H82V4H77V5H76V7H75V17h1v1h1v1h3V14h4V7H83Zm-3,4v2H79V9h1Z" fill="#f7a149"/><polygon points="92 6 91 6 90 6 89 6 88 6 87 6 87 7 86 7 86 8 86 9 86 10 85 10 85 11 85 12 85 13 85 14 85 15 85 16 85 17 85 18 85 19 86 19 87 19 88 19 89 19 89 18 89 17 89 16 89 15 89 14 89 13 89 12 89 11 89 10 90 10 91 10 92 10 93 10 93 9 93 8 93 7 93 6 92 6" fill="#f7a149"/><polygon points="9 2 8 2 7 2 6 2 5 2 4 2 4 3 3 3 3 4 2 4 2 5 2 6 2 7 2 8 2 9 2 10 2 11 2 12 2 13 2 14 2 15 2 16 2 17 3 17 3 18 4 18 4 19 5 19 6 19 7 19 8 19 9 19 10 19 11 19 11 18 11 17 11 16 11 15 11 14 11 13 11 12 11 11 11 10 11 9 11 8 10 8 9 8 8 8 7 8 7 9 7 10 7 11 7 12 7 13 7 14 7 15 6 15 6 14 6 13 6 12 6 11 6 10 6 9 6 8 6 7 6 6 6 5 7 5 8 5 9 5 10 5 11 5 11 4 11 3 11 2 10 2 9 2" fill="#f7a149"/><path d="M19,6H14V7H13V9H12v8h1v1h1v1h7V6H19Zm-2,5v5H16V10h1Z" fill="#f7a149"/><polygon points="35 8 35 7 34 7 34 6 33 6 32 6 31 6 30 6 29 6 28 6 27 6 26 6 25 6 24 6 23 6 22 6 22 7 22 8 22 9 22 10 22 11 22 12 22 13 22 14 22 15 22 16 22 17 22 18 22 19 23 19 24 19 25 19 26 19 26 18 26 17 26 16 26 15 26 14 26 13 26 12 26 11 26 10 27 10 27 11 27 12 27 13 27 14 27 15 27 16 27 17 27 18 27 19 28 19 29 19 30 19 31 19 31 18 31 17 31 16 31 15 31 14 31 13 31 12 31 11 31 10 32 10 32 11 32 12 32 13 32 14 32 15 32 16 32 17 32 18 32 19 33 19 34 19 35 19 36 19 36 18 36 17 36 16 36 15 36 14 36 13 36 12 36 11 36 10 36 9 35 9 35 8" fill="#f7a149"/><path d="M45,6V5H44V4H39V5H38V7H37V17h1v1h1v1h3V14h4V7H45Zm-3,4v2H41V9h1Z" fill="#f7a149"/></g><polygon points="59 7 59 8 59 9 59 10 59 11 59 12 59 13 59 14 59 15 59 16 60 16 60 15 60 14 60 13 60 12 60 11 60 10 60 9 60 8 60 7 60 6 59 6 59 7" fill="#fff"/><polygon points="79 11 79 12 80 12 80 11 80 10 79 10 79 11" fill="#fff"/><path d="M93,5H86V6H84V4H83V3H76V4H75V5H65V3H64V2H63V1H56V2H55V3H54V19h1v1h1v1h7V20h1v1h7V20h1V19h1V18h1v1h1v1h1v1h5V16h3v5h6V12h4V5ZM64,5V18H63v1H62v1H57V19H56V18H55V4h1V3h1V2h5V3h1V4h1ZM74,7v9H73v1H72v1H71v1H70v1H65V6h4V16h1V6h4ZM84,8v7H80v5H77V19H76V18H75V7h1V5h1V4h5V5h1V7h1Zm9-1v4H89v9H85V10h1V7h1V6h6Z" fill="#fff"/><path d="M46,5V4H45V3H38V4H37V6H35V5H13V6H12V1H3V2H2V3H1V19H2v1H3v1h9V20h1v1H37V20h1v1h5V16h4V6H46ZM11,3V6H6v9H7V8h4V20H4V19H3V18H2V4H3V3H4V2h7ZM21,7V20H14V19H13V18H12V9h1V7h1V6h7Zm15,3V20H32V11H31v9H27V11H26v9H22V6H34V7h1V9h1ZM46,8v7H42v5H39V19H38V18H37V7h1V5h1V4h5V5h1V7h1Z" fill="#fff"/><polygon points="41 11 41 12 42 12 42 11 42 10 41 10 41 11" fill="#fff"/><polygon points="16 12 16 13 16 14 16 15 16 16 17 16 17 15 17 14 17 13 17 12 17 11 16 11 16 12" fill="#fff"/><g id="Black"><polygon points="72 20 71 20 71 21 72 21 72 20 72 20" fill="#333"/><polygon points="73 19 72 19 72 20 73 20 73 19 73 19" fill="#333"/><polygon points="74 18 73 18 73 19 74 19 74 18 74 18" fill="#333"/><polygon points="75 19 74 19 74 20 75 20 75 19 75 19" fill="#333"/><polygon points="55 19 54 19 54 20 55 20 55 19 55 19" fill="#333"/><polygon points="56 20 55 20 55 21 56 21 56 20 56 20" fill="#333"/><polygon points="54 3 53 3 53 4 53 5 53 6 53 7 53 8 53 9 53 10 53 11 53 12 53 13 53 14 53 15 53 16 53 17 53 18 53 19 54 19 54 18 54 17 54 16 54 15 54 14 54 13 54 12 54 11 54 10 54 9 54 8 54 7 54 6 54 5 54 4 54 3 54 3" fill="#333"/><polygon points="55 2 54 2 54 3 55 3 55 2 55 2" fill="#333"/><polygon points="56 1 55 1 55 2 56 2 56 1 56 1" fill="#333"/><polygon points="65 2 64 2 64 3 65 3 65 2 65 2" fill="#333"/><polygon points="66 3 65 3 65 4 65 5 66 5 67 5 68 5 69 5 70 5 71 5 72 5 73 5 74 5 75 5 75 4 74 4 73 4 72 4 71 4 70 4 69 4 68 4 67 4 66 4 66 3 66 3" fill="#333"/><polygon points="64 1 63 1 63 2 64 2 64 1 64 1" fill="#333"/><polygon points="63 0 62 0 61 0 60 0 59 0 58 0 57 0 56 0 56 1 57 1 58 1 59 1 60 1 61 1 62 1 63 1 63 0 63 0" fill="#333"/><polygon points="76 3 75 3 75 4 76 4 76 3 76 3" fill="#333"/><polygon points="83 2 82 2 81 2 80 2 79 2 78 2 77 2 76 2 76 3 77 3 78 3 79 3 80 3 81 3 82 3 83 3 83 2 83 2" fill="#333"/><polygon points="84 3 83 3 83 4 84 4 84 3 84 3" fill="#333"/><polygon points="85 4 84 4 84 5 84 6 85 6 86 6 86 5 85 5 85 4 85 4" fill="#333"/><polygon points="95 4 94 4 93 4 92 4 91 4 90 4 89 4 88 4 87 4 86 4 86 5 87 5 88 5 89 5 90 5 91 5 92 5 93 5 94 5 94 6 94 7 94 8 94 9 94 10 94 11 94 12 93 12 92 12 91 12 90 12 90 13 90 14 90 15 90 16 90 17 90 18 90 19 90 20 90 21 89 21 88 21 87 21 86 21 85 21 84 21 84 20 84 19 84 18 84 17 84 16 83 16 82 16 81 16 81 17 81 18 81 19 81 20 81 21 80 21 79 21 78 21 77 21 76 21 76 20 75 20 75 21 75 22 76 22 77 22 78 22 79 22 80 22 81 22 82 22 82 21 82 20 82 19 82 18 82 17 83 17 83 18 83 19 83 20 83 21 83 22 84 22 85 22 86 22 87 22 88 22 89 22 90 22 91 22 91 21 91 20 91 19 91 18 91 17 91 16 91 15 91 14 91 13 92 13 93 13 94 13 95 13 95 12 95 11 95 10 95 9 95 8 95 7 95 6 95 5 95 4 95 4" fill="#333"/><polygon points="64 20 63 20 63 21 62 21 61 21 60 21 59 21 58 21 57 21 56 21 56 22 57 22 58 22 59 22 60 22 61 22 62 22 63 22 64 22 65 22 66 22 67 22 68 22 69 22 70 22 71 22 71 21 70 21 69 21 68 21 67 21 66 21 65 21 64 21 64 20 64 20" fill="#333"/><polygon points="2 19 1 19 1 20 2 20 2 19 2 19" fill="#333"/><polygon points="3 20 2 20 2 21 3 21 3 20 3 20" fill="#333"/><polygon points="1 3 0 3 0 4 0 5 0 6 0 7 0 8 0 9 0 10 0 11 0 12 0 13 0 14 0 15 0 16 0 17 0 18 0 19 1 19 1 18 1 17 1 16 1 15 1 14 1 13 1 12 1 11 1 10 1 9 1 8 1 7 1 6 1 5 1 4 1 3 1 3" fill="#333"/><polygon points="2 2 1 2 1 3 2 3 2 2 2 2" fill="#333"/><polygon points="3 1 2 1 2 2 3 2 3 1 3 1" fill="#333"/><polygon points="48 6 47 6 47 7 47 8 47 9 47 10 47 11 47 12 47 13 47 14 47 15 47 16 46 16 45 16 44 16 43 16 43 17 43 18 43 19 43 20 43 21 42 21 41 21 40 21 39 21 38 21 38 20 37 20 37 21 36 21 35 21 34 21 33 21 32 21 31 21 30 21 29 21 28 21 27 21 26 21 25 21 24 21 23 21 22 21 21 21 20 21 19 21 18 21 17 21 16 21 15 21 14 21 13 21 13 20 12 20 12 21 11 21 10 21 9 21 8 21 7 21 6 21 5 21 4 21 3 21 3 22 4 22 5 22 6 22 7 22 8 22 9 22 10 22 11 22 12 22 13 22 14 22 15 22 16 22 17 22 18 22 19 22 20 22 21 22 22 22 23 22 24 22 25 22 26 22 27 22 28 22 29 22 30 22 31 22 32 22 33 22 34 22 35 22 36 22 37 22 38 22 39 22 40 22 41 22 42 22 43 22 44 22 44 21 44 20 44 19 44 18 44 17 45 17 46 17 47 17 48 17 48 16 48 15 48 14 48 13 48 12 48 11 48 10 48 9 48 8 48 7 48 6 48 6" fill="#333"/><polygon points="47 4 46 4 46 5 46 6 47 6 47 5 47 4 47 4" fill="#333"/><polygon points="46 3 45 3 45 4 46 4 46 3 46 3" fill="#333"/><polygon points="38 3 37 3 37 4 38 4 38 3 38 3" fill="#333"/><polygon points="45 2 44 2 43 2 42 2 41 2 40 2 39 2 38 2 38 3 39 3 40 3 41 3 42 3 43 3 44 3 45 3 45 2 45 2" fill="#333"/><path d="M36,5h0M13,0H3V1h9V6h1V5H35V6h2V4H13V0Z" fill="#333"/></g></svg>