<svg xmlns="http://www.w3.org/2000/svg" viewBox="0 0 192 36"><polygon points="95 9 94 9 93 9 92 9 91 9 90 9 89 9 88 9 87 9 86 9 85 9 84 9 83 9 82 9 81 9 80 9 79 9 78 9 77 9 76 9 75 9 74 9 73 9 72 9 71 9 70 9 69 9 68 9 67 9 66 9 65 9 64 9 63 9 62 9 61 9 60 9 59 9 58 9 57 9 56 9 55 9 54 9 53 9 52 9 51 9 50 9 49 9 48 9 47 9 46 9 45 9 44 9 43 9 42 9 41 9 40 9 39 9 38 9 37 9 36 9 35 9 34 9 33 9 32 9 31 9 30 9 29 9 28 9 27 9 26 9 25 9 24 9 23 9 22 9 21 9 20 9 19 9 18 9 17 9 16 9 15 9 14 9 13 9 12 9 11 9 10 9 9 9 8 9 7 9 6 9 5 9 4 9 3 9 2 9 1 9 0 9 0 10 1 10 2 10 3 10 4 10 5 10 6 10 7 10 8 10 9 10 10 10 11 10 12 10 13 10 14 10 15 10 16 10 17 10 18 10 19 10 20 10 21 10 22 10 23 10 24 10 25 10 26 10 27 10 28 10 29 10 30 10 31 10 32 10 33 10 34 10 35 10 36 10 37 10 38 10 39 10 40 10 41 10 42 10 43 10 44 10 45 10 46 10 47 10 48 10 49 10 50 10 51 10 52 10 53 10 54 10 55 10 56 10 57 10 58 10 59 10 60 10 61 10 62 10 63 10 64 10 65 10 66 10 67 10 68 10 69 10 70 10 71 10 72 10 73 10 74 10 75 10 76 10 77 10 78 10 79 10 80 10 81 10 82 10 83 10 84 10 85 10 86 10 87 10 88 10 89 10 90 10 91 10 92 10 93 10 94 10 95 10 96 10 96 9 95 9" fill="#5f9023"/><polygon points="192 0 191 0 190 0 189 0 188 0 187 0 186 0 185 0 184 0 183 0 182 0 181 0 180 0 179 0 178 0 177 0 176 0 175 0 174 0 173 0 172 0 171 0 170 0 169 0 168 0 167 0 166 0 165 0 164 0 163 0 162 0 161 0 160 0 159 0 158 0 157 0 156 0 155 0 154 0 153 0 152 0 151 0 150 0 149 0 148 0 147 0 146 0 145 0 144 0 143 0 142 0 141 0 140 0 139 0 138 0 137 0 136 0 135 0 134 0 133 0 132 0 131 0 130 0 129 0 128 0 127 0 126 0 125 0 124 0 123 0 122 0 121 0 120 0 119 0 118 0 117 0 116 0 115 0 114 0 113 0 112 0 111 0 110 0 109 0 108 0 107 0 106 0 105 0 104 0 103 0 102 0 101 0 100 0 99 0 98 0 97 0 96 0 95 0 94 0 93 0 92 0 91 0 90 0 89 0 88 0 87 0 86 0 85 0 84 0 83 0 82 0 81 0 80 0 79 0 78 0 77 0 76 0 75 0 74 0 73 0 72 0 71 0 70 0 69 0 68 0 67 0 66 0 65 0 64 0 63 0 62 0 61 0 60 0 59 0 58 0 57 0 56 0 55 0 54 0 53 0 52 0 51 0 50 0 49 0 48 0 47 0 46 0 45 0 44 0 43 0 42 0 41 0 40 0 39 0 38 0 37 0 36 0 35 0 34 0 33 0 32 0 31 0 30 0 29 0 28 0 27 0 26 0 25 0 24 0 23 0 22 0 21 0 20 0 19 0 18 0 17 0 16 0 15 0 14 0 13 0 12 0 11 0 10 0 9 0 8 0 7 0 6 0 5 0 4 0 3 0 2 0 1 0 0 0 0 1 1 1 2 1 3 1 4 1 5 1 6 1 7 1 8 1 9 1 10 1 11 1 12 1 13 1 14 1 15 1 16 1 17 1 18 1 19 1 20 1 21 1 22 1 23 1 24 1 25 1 26 1 27 1 28 1 29 1 30 1 31 1 32 1 33 1 34 1 35 1 36 1 37 1 38 1 39 1 40 1 41 1 42 1 43 1 44 1 45 1 46 1 47 1 48 1 49 1 50 1 51 1 52 1 53 1 54 1 55 1 56 1 57 1 58 1 59 1 60 1 61 1 62 1 63 1 64 1 65 1 66 1 67 1 68 1 69 1 70 1 71 1 72 1 73 1 74 1 75 1 76 1 77 1 78 1 79 1 80 1 81 1 82 1 83 1 84 1 85 1 86 1 87 1 88 1 89 1 90 1 91 1 92 1 93 1 94 1 95 1 96 1 97 1 98 1 99 1 100 1 101 1 102 1 103 1 104 1 105 1 106 1 107 1 108 1 109 1 110 1 111 1 112 1 113 1 114 1 115 1 116 1 117 1 118 1 119 1 120 1 121 1 122 1 123 1 124 1 125 1 126 1 127 1 128 1 129 1 130 1 131 1 132 1 133 1 134 1 135 1 136 1 137 1 138 1 139 1 140 1 141 1 142 1 143 1 144 1 145 1 146 1 147 1 148 1 149 1 150 1 151 1 152 1 153 1 154 1 155 1 156 1 157 1 158 1 159 1 160 1 161 1 162 1 163 1 164 1 165 1 166 1 167 1 168 1 169 1 170 1 171 1 172 1 173 1 174 1 175 1 176 1 177 1 178 1 179 1 180 1 181 1 182 1 183 1 184 1 185 1 186 1 187 1 188 1 189 1 190 1 191 1 192 1 192 0 192 0" fill="#333"/><polygon points="191 1 190 1 189 1 188 1 187 1 186 1 185 1 184 1 183 1 182 1 181 1 180 1 179 1 178 1 177 1 176 1 175 1 174 1 173 1 172 1 171 1 170 1 169 1 168 1 167 1 166 1 165 1 164 1 163 1 162 1 161 1 160 1 159 1 158 1 157 1 156 1 155 1 154 1 153 1 152 1 151 1 150 1 149 1 148 1 147 1 146 1 145 1 144 1 143 1 142 1 141 1 140 1 139 1 138 1 137 1 136 1 135 1 134 1 133 1 132 1 131 1 130 1 129 1 128 1 127 1 126 1 125 1 124 1 123 1 122 1 121 1 120 1 119 1 118 1 117 1 116 1 115 1 114 1 113 1 112 1 111 1 110 1 109 1 108 1 107 1 106 1 105 1 104 1 103 1 102 1 101 1 100 1 99 1 98 1 97 1 96 1 95 1 94 1 93 1 92 1 91 1 90 1 89 1 88 1 87 1 86 1 85 1 84 1 83 1 82 1 81 1 80 1 79 1 78 1 77 1 76 1 75 1 74 1 73 1 72 1 71 1 70 1 69 1 68 1 67 1 66 1 65 1 64 1 63 1 62 1 61 1 60 1 59 1 58 1 57 1 56 1 55 1 54 1 53 1 52 1 51 1 50 1 49 1 48 1 47 1 46 1 45 1 44 1 43 1 42 1 41 1 40 1 39 1 38 1 37 1 36 1 35 1 34 1 33 1 32 1 31 1 30 1 29 1 28 1 27 1 26 1 25 1 24 1 23 1 22 1 21 1 20 1 19 1 18 1 17 1 16 1 15 1 14 1 13 1 12 1 11 1 10 1 9 1 8 1 7 1 6 1 5 1 4 1 3 1 2 1 1 1 0 1 0 2 1 2 2 2 3 2 4 2 5 2 6 2 7 2 8 2 9 2 10 2 11 2 12 2 13 2 14 2 15 2 16 2 17 2 18 2 19 2 20 2 21 2 22 2 23 2 24 2 25 2 26 2 27 2 28 2 29 2 30 2 31 2 32 2 33 2 34 2 35 2 36 2 37 2 38 2 39 2 40 2 41 2 42 2 43 2 44 2 45 2 46 2 47 2 48 2 49 2 50 2 51 2 52 2 53 2 54 2 55 2 56 2 57 2 58 2 59 2 60 2 61 2 62 2 63 2 64 2 65 2 66 2 67 2 68 2 69 2 70 2 71 2 72 2 73 2 74 2 75 2 76 2 77 2 78 2 79 2 80 2 81 2 82 2 83 2 84 2 85 2 86 2 87 2 88 2 89 2 90 2 91 2 92 2 93 2 94 2 95 2 96 2 97 2 98 2 99 2 100 2 101 2 102 2 103 2 104 2 105 2 106 2 107 2 108 2 109 2 110 2 111 2 112 2 113 2 114 2 115 2 116 2 117 2 118 2 119 2 120 2 121 2 122 2 123 2 124 2 125 2 126 2 127 2 128 2 129 2 130 2 131 2 132 2 133 2 134 2 135 2 136 2 137 2 138 2 139 2 140 2 141 2 142 2 143 2 144 2 145 2 146 2 147 2 148 2 149 2 150 2 151 2 152 2 153 2 154 2 155 2 156 2 157 2 158 2 159 2 160 2 161 2 162 2 163 2 164 2 165 2 166 2 167 2 168 2 169 2 170 2 171 2 172 2 173 2 174 2 175 2 176 2 177 2 178 2 179 2 180 2 181 2 182 2 183 2 184 2 185 2 186 2 187 2 188 2 189 2 190 2 191 2 192 2 192 1 191 1" fill="#e3fc94"/><polygon points="6 2 5 2 4 2 3 2 2 2 1 2 0 2 0 3 0 4 0 5 0 6 0 7 0 8 1 8 1 7 2 7 2 6 3 6 3 5 4 5 4 4 5 4 5 3 6 3 6 2" fill="#9ce659"/><polygon points="18 2 17 2 16 2 15 2 14 2 13 2 12 2 12 3 11 3 11 4 10 4 10 5 9 5 9 6 8 6 8 7 7 7 7 8 6 8 6 9 7 9 8 9 9 9 10 9 11 9 12 9 12 8 13 8 13 7 14 7 14 6 15 6 15 5 16 5 16 4 17 4 17 3 18 3 18 2" fill="#9ce659"/><polygon points="30 2 29 2 28 2 27 2 26 2 25 2 24 2 24 3 23 3 23 4 22 4 22 5 21 5 21 6 20 6 20 7 19 7 19 8 18 8 18 9 19 9 20 9 21 9 22 9 23 9 24 9 24 8 25 8 25 7 26 7 26 6 27 6 27 5 28 5 28 4 29 4 29 3 30 3 30 2" fill="#9ce659"/><polygon points="42 2 41 2 40 2 39 2 38 2 37 2 36 2 36 3 35 3 35 4 34 4 34 5 33 5 33 6 32 6 32 7 31 7 31 8 30 8 30 9 31 9 32 9 33 9 34 9 35 9 36 9 36 8 37 8 37 7 38 7 38 6 39 6 39 5 40 5 40 4 41 4 41 3 42 3 42 2" fill="#9ce659"/><polygon points="54 2 53 2 52 2 51 2 50 2 49 2 48 2 48 3 47 3 47 4 46 4 46 5 45 5 45 6 44 6 44 7 43 7 43 8 42 8 42 9 43 9 44 9 45 9 46 9 47 9 48 9 48 8 49 8 49 7 50 7 50 6 51 6 51 5 52 5 52 4 53 4 53 3 54 3 54 2" fill="#9ce659"/><polygon points="66 2 65 2 64 2 63 2 62 2 61 2 60 2 60 3 59 3 59 4 58 4 58 5 57 5 57 6 56 6 56 7 55 7 55 8 54 8 54 9 55 9 56 9 57 9 58 9 59 9 60 9 60 8 61 8 61 7 62 7 62 6 63 6 63 5 64 5 64 4 65 4 65 3 66 3 66 2" fill="#9ce659"/><polygon points="78 2 77 2 76 2 75 2 74 2 73 2 72 2 72 3 71 3 71 4 70 4 70 5 69 5 69 6 68 6 68 7 67 7 67 8 66 8 66 9 67 9 68 9 69 9 70 9 71 9 72 9 72 8 73 8 73 7 74 7 74 6 75 6 75 5 76 5 76 4 77 4 77 3 78 3 78 2" fill="#9ce659"/><polygon points="90 2 89 2 88 2 87 2 86 2 85 2 84 2 84 3 83 3 83 4 82 4 82 5 81 5 81 6 80 6 80 7 79 7 79 8 78 8 78 9 79 9 80 9 81 9 82 9 83 9 84 9 84 8 85 8 85 7 86 7 86 6 87 6 87 5 88 5 88 4 89 4 89 3 90 3 90 2" fill="#9ce659"/><polygon points="102 2 101 2 100 2 99 2 98 2 97 2 96 2 96 3 95 3 95 4 94 4 94 5 93 5 93 6 92 6 92 7 91 7 91 8 90 8 90 9 91 9 92 9 93 9 94 9 95 9 96 9 96 8 97 8 97 7 98 7 98 6 99 6 99 5 100 5 100 4 101 4 101 3 102 3 102 2" fill="#9ce659"/><polygon points="114 2 113 2 112 2 111 2 110 2 109 2 108 2 108 3 107 3 107 4 106 4 106 5 105 5 105 6 104 6 104 7 103 7 103 8 102 8 102 9 103 9 104 9 105 9 106 9 107 9 108 9 108 8 109 8 109 7 110 7 110 6 111 6 111 5 112 5 112 4 113 4 113 3 114 3 114 2" fill="#9ce659"/><polygon points="126 2 125 2 124 2 123 2 122 2 121 2 120 2 120 3 119 3 119 4 118 4 118 5 117 5 117 6 116 6 116 7 115 7 115 8 114 8 114 9 115 9 116 9 117 9 118 9 119 9 120 9 120 8 121 8 121 7 122 7 122 6 123 6 123 5 124 5 124 4 125 4 125 3 126 3 126 2" fill="#9ce659"/><polygon points="138 2 137 2 136 2 135 2 134 2 133 2 132 2 132 3 131 3 131 4 130 4 130 5 129 5 129 6 128 6 128 7 127 7 127 8 126 8 126 9 127 9 128 9 129 9 130 9 131 9 132 9 132 8 133 8 133 7 134 7 134 6 135 6 135 5 136 5 136 4 137 4 137 3 138 3 138 2" fill="#9ce659"/><polygon points="150 2 149 2 148 2 147 2 146 2 145 2 144 2 144 3 143 3 143 4 142 4 142 5 141 5 141 6 140 6 140 7 139 7 139 8 138 8 138 9 139 9 140 9 141 9 142 9 143 9 144 9 144 8 145 8 145 7 146 7 146 6 147 6 147 5 148 5 148 4 149 4 149 3 150 3 150 2" fill="#9ce659"/><polygon points="162 2 161 2 160 2 159 2 158 2 157 2 156 2 156 3 155 3 155 4 154 4 154 5 153 5 153 6 152 6 152 7 151 7 151 8 150 8 150 9 151 9 152 9 153 9 154 9 155 9 156 9 156 8 157 8 157 7 158 7 158 6 159 6 159 5 160 5 160 4 161 4 161 3 162 3 162 2" fill="#9ce659"/><polygon points="174 2 173 2 172 2 171 2 170 2 169 2 168 2 168 3 167 3 167 4 166 4 166 5 165 5 165 6 164 6 164 7 163 7 163 8 162 8 162 9 163 9 164 9 165 9 166 9 167 9 168 9 168 8 169 8 169 7 170 7 170 6 171 6 171 5 172 5 172 4 173 4 173 3 174 3 174 2" fill="#9ce659"/><polygon points="191 3 191 4 190 4 190 5 189 5 189 6 188 6 188 7 187 7 187 8 186 8 186 9 187 9 188 9 189 9 190 9 191 9 192 9 192 8 192 7 192 6 192 5 192 4 192 3 191 3" fill="#9ce659"/><polygon points="186 2 185 2 184 2 183 2 182 2 181 2 180 2 180 3 179 3 179 4 178 4 178 5 177 5 177 6 176 6 176 7 175 7 175 8 174 8 174 9 175 9 176 9 177 9 178 9 179 9 180 9 180 8 181 8 181 7 182 7 182 6 183 6 183 5 184 5 184 4 185 4 185 3 186 3 186 2" fill="#9ce659"/><polygon points="191 9 190 9 189 9 188 9 187 9 186 9 185 9 184 9 183 9 182 9 181 9 180 9 179 9 178 9 177 9 176 9 175 9 174 9 173 9 172 9 171 9 170 9 169 9 168 9 167 9 166 9 165 9 164 9 163 9 162 9 161 9 160 9 159 9 158 9 157 9 156 9 155 9 154 9 153 9 152 9 151 9 150 9 149 9 148 9 147 9 146 9 145 9 144 9 143 9 142 9 141 9 140 9 139 9 138 9 137 9 136 9 135 9 134 9 133 9 132 9 131 9 130 9 129 9 128 9 127 9 126 9 125 9 124 9 123 9 122 9 121 9 120 9 119 9 118 9 117 9 116 9 115 9 114 9 113 9 112 9 111 9 110 9 109 9 108 9 107 9 106 9 105 9 104 9 103 9 102 9 101 9 100 9 99 9 98 9 97 9 96 9 96 10 97 10 98 10 99 10 100 10 101 10 102 10 103 10 104 10 105 10 106 10 107 10 108 10 109 10 110 10 111 10 112 10 113 10 114 10 115 10 116 10 117 10 118 10 119 10 120 10 121 10 122 10 123 10 124 10 125 10 126 10 127 10 128 10 129 10 130 10 131 10 132 10 133 10 134 10 135 10 136 10 137 10 138 10 139 10 140 10 141 10 142 10 143 10 144 10 145 10 146 10 147 10 148 10 149 10 150 10 151 10 152 10 153 10 154 10 155 10 156 10 157 10 158 10 159 10 160 10 161 10 162 10 163 10 164 10 165 10 166 10 167 10 168 10 169 10 170 10 171 10 172 10 173 10 174 10 175 10 176 10 177 10 178 10 179 10 180 10 181 10 182 10 183 10 184 10 185 10 186 10 187 10 188 10 189 10 190 10 191 10 192 10 192 9 191 9" fill="#5f9023"/><polygon points="12 2 11 2 10 2 9 2 8 2 7 2 6 2 6 3 5 3 5 4 4 4 4 5 3 5 3 6 2 6 2 7 1 7 1 8 0 8 0 9 1 9 2 9 3 9 4 9 5 9 6 9 6 8 7 8 7 7 8 7 8 6 9 6 9 5 10 5 10 4 11 4 11 3 12 3 12 2" fill="#74bf2f"/><polygon points="24 2 23 2 22 2 21 2 20 2 19 2 18 2 18 3 17 3 17 4 16 4 16 5 15 5 15 6 14 6 14 7 13 7 13 8 12 8 12 9 13 9 14 9 15 9 16 9 17 9 18 9 18 8 19 8 19 7 20 7 20 6 21 6 21 5 22 5 22 4 23 4 23 3 24 3 24 2" fill="#74bf2f"/><polygon points="36 2 35 2 34 2 33 2 32 2 31 2 30 2 30 3 29 3 29 4 28 4 28 5 27 5 27 6 26 6 26 7 25 7 25 8 24 8 24 9 25 9 26 9 27 9 28 9 29 9 30 9 30 8 31 8 31 7 32 7 32 6 33 6 33 5 34 5 34 4 35 4 35 3 36 3 36 2" fill="#74bf2f"/><polygon points="48 2 47 2 46 2 45 2 44 2 43 2 42 2 42 3 41 3 41 4 40 4 40 5 39 5 39 6 38 6 38 7 37 7 37 8 36 8 36 9 37 9 38 9 39 9 40 9 41 9 42 9 42 8 43 8 43 7 44 7 44 6 45 6 45 5 46 5 46 4 47 4 47 3 48 3 48 2" fill="#74bf2f"/><polygon points="60 2 59 2 58 2 57 2 56 2 55 2 54 2 54 3 53 3 53 4 52 4 52 5 51 5 51 6 50 6 50 7 49 7 49 8 48 8 48 9 49 9 50 9 51 9 52 9 53 9 54 9 54 8 55 8 55 7 56 7 56 6 57 6 57 5 58 5 58 4 59 4 59 3 60 3 60 2" fill="#74bf2f"/><polygon points="72 2 71 2 70 2 69 2 68 2 67 2 66 2 66 3 65 3 65 4 64 4 64 5 63 5 63 6 62 6 62 7 61 7 61 8 60 8 60 9 61 9 62 9 63 9 64 9 65 9 66 9 66 8 67 8 67 7 68 7 68 6 69 6 69 5 70 5 70 4 71 4 71 3 72 3 72 2" fill="#74bf2f"/><polygon points="84 2 83 2 82 2 81 2 80 2 79 2 78 2 78 3 77 3 77 4 76 4 76 5 75 5 75 6 74 6 74 7 73 7 73 8 72 8 72 9 73 9 74 9 75 9 76 9 77 9 78 9 78 8 79 8 79 7 80 7 80 6 81 6 81 5 82 5 82 4 83 4 83 3 84 3 84 2" fill="#74bf2f"/><polygon points="96 2 95 2 94 2 93 2 92 2 91 2 90 2 90 3 89 3 89 4 88 4 88 5 87 5 87 6 86 6 86 7 85 7 85 8 84 8 84 9 85 9 86 9 87 9 88 9 89 9 90 9 90 8 91 8 91 7 92 7 92 6 93 6 93 5 94 5 94 4 95 4 95 3 96 3 96 2" fill="#74bf2f"/><polygon points="108 2 107 2 106 2 105 2 104 2 103 2 102 2 102 3 101 3 101 4 100 4 100 5 99 5 99 6 98 6 98 7 97 7 97 8 96 8 96 9 97 9 98 9 99 9 100 9 101 9 102 9 102 8 103 8 103 7 104 7 104 6 105 6 105 5 106 5 106 4 107 4 107 3 108 3 108 2" fill="#74bf2f"/><polygon points="120 2 119 2 118 2 117 2 116 2 115 2 114 2 114 3 113 3 113 4 112 4 112 5 111 5 111 6 110 6 110 7 109 7 109 8 108 8 108 9 109 9 110 9 111 9 112 9 113 9 114 9 114 8 115 8 115 7 116 7 116 6 117 6 117 5 118 5 118 4 119 4 119 3 120 3 120 2" fill="#74bf2f"/><polygon points="132 2 131 2 130 2 129 2 128 2 127 2 126 2 126 3 125 3 125 4 124 4 124 5 123 5 123 6 122 6 122 7 121 7 121 8 120 8 120 9 121 9 122 9 123 9 124 9 125 9 126 9 126 8 127 8 127 7 128 7 128 6 129 6 129 5 130 5 130 4 131 4 131 3 132 3 132 2" fill="#74bf2f"/><polygon points="144 2 143 2 142 2 141 2 140 2 139 2 138 2 138 3 137 3 137 4 136 4 136 5 135 5 135 6 134 6 134 7 133 7 133 8 132 8 132 9 133 9 134 9 135 9 136 9 137 9 138 9 138 8 139 8 139 7 140 7 140 6 141 6 141 5 142 5 142 4 143 4 143 3 144 3 144 2" fill="#74bf2f"/><polygon points="156 2 155 2 154 2 153 2 152 2 151 2 150 2 150 3 149 3 149 4 148 4 148 5 147 5 147 6 146 6 146 7 145 7 145 8 144 8 144 9 145 9 146 9 147 9 148 9 149 9 150 9 150 8 151 8 151 7 152 7 152 6 153 6 153 5 154 5 154 4 155 4 155 3 156 3 156 2" fill="#74bf2f"/><polygon points="168 2 167 2 166 2 165 2 164 2 163 2 162 2 162 3 161 3 161 4 160 4 160 5 159 5 159 6 158 6 158 7 157 7 157 8 156 8 156 9 157 9 158 9 159 9 160 9 161 9 162 9 162 8 163 8 163 7 164 7 164 6 165 6 165 5 166 5 166 4 167 4 167 3 168 3 168 2" fill="#74bf2f"/><polygon points="180 2 179 2 178 2 177 2 176 2 175 2 174 2 174 3 173 3 173 4 172 4 172 5 171 5 171 6 170 6 170 7 169 7 169 8 168 8 168 9 169 9 170 9 171 9 172 9 173 9 174 9 174 8 175 8 175 7 176 7 176 6 177 6 177 5 178 5 178 4 179 4 179 3 180 3 180 2" fill="#74bf2f"/><polygon points="191 2 190 2 189 2 188 2 187 2 186 2 186 3 185 3 185 4 184 4 184 5 183 5 183 6 182 6 182 7 181 7 181 8 180 8 180 9 181 9 182 9 183 9 184 9 185 9 186 9 186 8 187 8 187 7 188 7 188 6 189 6 189 5 190 5 190 4 191 4 191 3 192 3 192 2 191 2" fill="#74bf2f"/><polygon points="191 10 190 10 189 10 188 10 187 10 186 10 185 10 184 10 183 10 182 10 181 10 180 10 179 10 178 10 177 10 176 10 175 10 174 10 173 10 172 10 171 10 170 10 169 10 168 10 167 10 166 10 165 10 164 10 163 10 162 10 161 10 160 10 159 10 158 10 157 10 156 10 155 10 154 10 153 10 152 10 151 10 150 10 149 10 148 10 147 10 146 10 145 10 144 10 143 10 142 10 141 10 140 10 139 10 138 10 137 10 136 10 135 10 134 10 133 10 132 10 131 10 130 10 129 10 128 10 127 10 126 10 125 10 124 10 123 10 122 10 121 10 120 10 119 10 118 10 117 10 116 10 115 10 114 10 113 10 112 10 111 10 110 10 109 10 108 10 107 10 106 10 105 10 104 10 103 10 102 10 101 10 100 10 99 10 98 10 97 10 96 10 95 10 94 10 93 10 92 10 91 10 90 10 89 10 88 10 87 10 86 10 85 10 84 10 83 10 82 10 81 10 80 10 79 10 78 10 77 10 76 10 75 10 74 10 73 10 72 10 71 10 70 10 69 10 68 10 67 10 66 10 65 10 64 10 63 10 62 10 61 10 60 10 59 10 58 10 57 10 56 10 55 10 54 10 53 10 52 10 51 10 50 10 49 10 48 10 47 10 46 10 45 10 44 10 43 10 42 10 41 10 40 10 39 10 38 10 37 10 36 10 35 10 34 10 33 10 32 10 31 10 30 10 29 10 28 10 27 10 26 10 25 10 24 10 23 10 22 10 21 10 20 10 19 10 18 10 17 10 16 10 15 10 14 10 13 10 12 10 11 10 10 10 9 10 8 10 7 10 6 10 5 10 4 10 3 10 2 10 1 10 0 10 0 11 1 11 2 11 3 11 4 11 5 11 6 11 7 11 8 11 9 11 10 11 11 11 12 11 13 11 14 11 15 11 16 11 17 11 18 11 19 11 20 11 21 11 22 11 23 11 24 11 25 11 26 11 27 11 28 11 29 11 30 11 31 11 32 11 33 11 34 11 35 11 36 11 37 11 38 11 39 11 40 11 41 11 42 11 43 11 44 11 45 11 46 11 47 11 48 11 49 11 50 11 51 11 52 11 53 11 54 11 55 11 56 11 57 11 58 11 59 11 60 11 61 11 62 11 63 11 64 11 65 11 66 11 67 11 68 11 69 11 70 11 71 11 72 11 73 11 74 11 75 11 76 11 77 11 78 11 79 11 80 11 81 11 82 11 83 11 84 11 85 11 86 11 87 11 88 11 89 11 90 11 91 11 92 11 93 11 94 11 95 11 96 11 97 11 98 11 99 11 100 11 101 11 102 11 103 11 104 11 105 11 106 11 107 11 108 11 109 11 110 11 111 11 112 11 113 11 114 11 115 11 116 11 117 11 118 11 119 11 120 11 121 11 122 11 123 11 124 11 125 11 126 11 127 11 128 11 129 11 130 11 131 11 132 11 133 11 134 11 135 11 136 11 137 11 138 11 139 11 140 11 141 11 142 11 143 11 144 11 145 11 146 11 147 11 148 11 149 11 150 11 151 11 152 11 153 11 154 11 155 11 156 11 157 11 158 11 159 11 160 11 161 11 162 11 163 11 164 11 165 11 166 11 167 11 168 11 169 11 170 11 171 11 172 11 173 11 174 11 175 11 176 11 177 11 178 11 179 11 180 11 181 11 182 11 183 11 184 11 185 11 186 11 187 11 188 11 189 11 190 11 191 11 192 11 192 10 191 10" fill="#deb158"/><polygon points="191 11 190 11 189 11 188 11 187 11 186 11 185 11 184 11 183 11 182 11 181 11 180 11 179 11 178 11 177 11 176 11 175 11 174 11 173 11 172 11 171 11 170 11 169 11 168 11 167 11 166 11 165 11 164 11 163 11 162 11 161 11 160 11 159 11 158 11 157 11 156 11 155 11 154 11 153 11 152 11 151 11 150 11 149 11 148 11 147 11 146 11 145 11 144 11 143 11 142 11 141 11 140 11 139 11 138 11 137 11 136 11 135 11 134 11 133 11 132 11 131 11 130 11 129 11 128 11 127 11 126 11 125 11 124 11 123 11 122 11 121 11 120 11 119 11 118 11 117 11 116 11 115 11 114 11 113 11 112 11 111 11 110 11 109 11 108 11 107 11 106 11 105 11 104 11 103 11 102 11 101 11 100 11 99 11 98 11 97 11 96 11 95 11 94 11 93 11 92 11 91 11 90 11 89 11 88 11 87 11 86 11 85 11 84 11 83 11 82 11 81 11 80 11 79 11 78 11 77 11 76 11 75 11 74 11 73 11 72 11 71 11 70 11 69 11 68 11 67 11 66 11 65 11 64 11 63 11 62 11 61 11 60 11 59 11 58 11 57 11 56 11 55 11 54 11 53 11 52 11 51 11 50 11 49 11 48 11 47 11 46 11 45 11 44 11 43 11 42 11 41 11 40 11 39 11 38 11 37 11 36 11 35 11 34 11 33 11 32 11 31 11 30 11 29 11 28 11 27 11 26 11 25 11 24 11 23 11 22 11 21 11 20 11 19 11 18 11 17 11 16 11 15 11 14 11 13 11 12 11 11 11 10 11 9 11 8 11 7 11 6 11 5 11 4 11 3 11 2 11 1 11 0 11 0 12 0 13 0 14 0 15 0 16 0 17 0 18 0 19 0 20 0 21 0 22 0 23 0 24 0 25 0 26 0 27 0 28 0 29 0 30 0 31 0 32 0 33 0 34 0 35 0 36 1 36 2 36 3 36 4 36 5 36 6 36 7 36 8 36 9 36 10 36 11 36 12 36 13 36 14 36 15 36 16 36 17 36 18 36 19 36 20 36 21 36 22 36 23 36 24 36 25 36 26 36 27 36 28 36 29 36 30 36 31 36 32 36 33 36 34 36 35 36 36 36 37 36 38 36 39 36 40 36 41 36 42 36 43 36 44 36 45 36 46 36 47 36 48 36 49 36 50 36 51 36 52 36 53 36 54 36 55 36 56 36 57 36 58 36 59 36 60 36 61 36 62 36 63 36 64 36 65 36 66 36 67 36 68 36 69 36 70 36 71 36 72 36 73 36 74 36 75 36 76 36 77 36 78 36 79 36 80 36 81 36 82 36 83 36 84 36 85 36 86 36 87 36 88 36 89 36 90 36 91 36 92 36 93 36 94 36 95 36 96 36 97 36 98 36 99 36 100 36 101 36 102 36 103 36 104 36 105 36 106 36 107 36 108 36 109 36 110 36 111 36 112 36 113 36 114 36 115 36 116 36 117 36 118 36 119 36 120 36 121 36 122 36 123 36 124 36 125 36 126 36 127 36 128 36 129 36 130 36 131 36 132 36 133 36 134 36 135 36 136 36 137 36 138 36 139 36 140 36 141 36 142 36 143 36 144 36 145 36 146 36 147 36 148 36 149 36 150 36 151 36 152 36 153 36 154 36 155 36 156 36 157 36 158 36 159 36 160 36 161 36 162 36 163 36 164 36 165 36 166 36 167 36 168 36 169 36 170 36 171 36 172 36 173 36 174 36 175 36 176 36 177 36 178 36 179 36 180 36 181 36 182 36 183 36 184 36 185 36 186 36 187 36 188 36 189 36 190 36 191 36 192 36 192 35 192 34 192 33 192 32 192 31 192 30 192 29 192 28 192 27 192 26 192 25 192 24 192 23 192 22 192 21 192 20 192 19 192 18 192 17 192 16 192 15 192 14 192 13 192 12 192 11 191 11" fill="#ddd894"/></svg>