<svg id="Pipe" xmlns="http://www.w3.org/2000/svg" viewBox="0 0 30 144"><title>pipe</title><polygon points="23 2 22 2 21 2 20 2 19 2 18 2 17 2 16 2 15 2 14 2 13 2 12 2 11 2 10 2 9 2 8 2 7 2 7 3 7 4 7 5 7 6 7 7 7 8 7 9 7 10 8 10 9 10 10 10 11 10 12 10 13 10 14 10 15 10 16 10 17 10 18 10 19 10 20 10 21 10 22 10 23 10 24 10 25 10 25 9 25 8 25 7 25 6 25 5 25 4 25 3 25 2 24 2 23 2" fill="#74bf2f"/><rect x="1" y="1" width="1" height="1" fill="#74bf2f"/><polygon points="5 3 5 4 5 5 5 6 5 7 5 8 5 9 5 10 6 10 6 9 6 8 6 7 6 6 6 5 6 4 6 3 6 2 5 2 5 3" fill="#74bf2f"/><rect x="27" y="1" width="1" height="1" fill="#74bf2f"/><polygon points="26 3 26 4 26 5 26 6 26 7 26 8 26 9 26 10 27 10 27 9 27 8 27 7 27 6 27 5 27 4 27 3 27 2 26 2 26 3" fill="#74bf2f"/><polygon points="6 3 6 4 6 5 6 6 6 7 6 8 6 9 6 10 7 10 7 9 7 8 7 7 7 6 7 5 7 4 7 3 7 2 6 2 6 3" fill="#9ce659"/><rect x="18" y="1" width="1" height="1" fill="#9ce659"/><polygon points="26 1 25 1 24 1 23 1 22 1 21 1 20 1 20 2 21 2 22 2 23 2 24 2 25 2 26 2 27 2 27 1 26 1" fill="#9ce659"/><rect x="2" y="1" width="1" height="1" fill="#9ce659"/><polygon points="3 2 3 3 3 4 3 5 3 6 3 7 3 8 3 9 3 10 4 10 5 10 5 9 5 8 5 7 5 6 5 5 5 4 5 3 5 2 4 2 3 2" fill="#9ce659"/><polygon points="1 3 1 4 1 5 1 6 1 7 1 8 1 9 1 10 2 10 2 9 2 8 2 7 2 6 2 5 2 4 2 3 2 2 1 2 1 3" fill="#9ce659"/><polygon points="2 3 2 4 2 5 2 6 2 7 2 8 2 9 2 10 3 10 3 9 3 8 3 7 3 6 3 5 3 4 3 3 3 2 2 2 2 3" fill="#e3fc94"/><polygon points="16 1 15 1 14 1 13 1 12 1 11 1 10 1 9 1 8 1 7 1 6 1 5 1 4 1 3 1 3 2 4 2 5 2 6 2 7 2 8 2 9 2 10 2 11 2 12 2 13 2 14 2 15 2 16 2 17 2 18 2 18 1 17 1 16 1" fill="#e3fc94"/><rect x="19" y="1" width="1" height="1" fill="#e3fc94"/><polygon points="28 1 28 2 27 2 27 3 27 4 27 5 27 6 27 7 27 8 27 9 27 10 26 10 26 9 26 8 26 7 26 6 26 5 26 4 26 3 26 2 25 2 25 3 25 4 25 5 25 6 25 7 25 8 25 9 25 10 24 10 23 10 22 10 21 10 20 10 19 10 18 10 17 10 16 10 15 10 14 10 13 10 12 10 11 10 10 10 9 10 8 10 7 10 6 10 5 10 4 10 3 10 2 10 1 10 1 11 2 11 3 11 4 11 5 11 6 11 7 11 8 11 9 11 10 11 11 11 12 11 13 11 14 11 15 11 16 11 17 11 18 11 19 11 20 11 21 11 22 11 23 11 24 11 25 11 26 11 27 11 28 11 29 11 29 10 29 9 29 8 29 7 29 6 29 5 29 4 29 3 29 2 29 1 28 1" fill="#5f9023"/><path d="M30,0H0V12H30V0ZM1,11V1H29V11H1Z" fill="#333"/><polygon points="3 12 2 12 2 13 2 14 2 15 2 16 2 17 2 18 2 19 2 20 2 21 2 22 2 23 2 24 2 25 2 26 2 27 2 28 2 29 2 30 2 31 2 32 2 33 2 34 2 35 2 36 2 37 2 38 2 39 2 40 2 41 2 42 2 43 2 44 2 45 2 46 2 47 2 48 2 49 2 50 2 51 2 52 2 53 2 54 2 55 2 56 2 57 2 58 2 59 2 60 2 61 2 62 2 63 2 64 2 65 2 66 2 67 2 68 2 69 2 70 2 71 2 72 2 73 2 74 2 75 2 76 2 77 2 78 2 79 2 80 2 81 2 82 2 83 2 84 2 85 2 86 2 87 2 88 2 89 2 90 2 91 2 92 2 93 2 94 2 95 2 96 2 97 2 98 2 99 2 100 2 101 2 102 2 103 2 104 2 105 2 106 2 107 2 108 2 109 2 110 2 111 2 112 2 113 2 114 2 115 2 116 2 117 2 118 2 119 2 120 2 121 2 122 2 123 2 124 2 125 2 126 2 127 2 128 2 129 2 130 2 131 2 132 2 133 2 134 2 135 2 136 2 137 2 138 2 139 2 140 2 141 2 142 2 143 2 144 3 144 3 143 3 142 3 141 3 140 3 139 3 138 3 137 3 136 3 135 3 134 3 133 3 132 3 131 3 130 3 129 3 128 3 127 3 126 3 125 3 124 3 123 3 122 3 121 3 120 3 119 3 118 3 117 3 116 3 115 3 114 3 113 3 112 3 111 3 110 3 109 3 108 3 107 3 106 3 105 3 104 3 103 3 102 3 101 3 100 3 99 3 98 3 97 3 96 3 95 3 94 3 93 3 92 3 91 3 90 3 89 3 88 3 87 3 86 3 85 3 84 3 83 3 82 3 81 3 80 3 79 3 78 3 77 3 76 3 75 3 74 3 73 3 72 3 71 3 70 3 69 3 68 3 67 3 66 3 65 3 64 3 63 3 62 3 61 3 60 3 59 3 58 3 57 3 56 3 55 3 54 3 53 3 52 3 51 3 50 3 49 3 48 3 47 3 46 3 45 3 44 3 43 3 42 3 41 3 40 3 39 3 38 3 37 3 36 3 35 3 34 3 33 3 32 3 31 3 30 3 29 3 28 3 27 3 26 3 25 3 24 3 23 3 22 3 21 3 20 3 19 3 18 3 17 3 16 3 15 3 14 3 13 3 12 3 12" fill="#333"/><polygon points="7 12 7 13 7 14 7 15 7 16 7 17 7 18 7 19 7 20 7 21 7 22 7 23 7 24 7 25 7 26 7 27 7 28 7 29 7 30 7 31 7 32 7 33 7 34 7 35 7 36 7 37 7 38 7 39 7 40 7 41 7 42 7 43 7 44 7 45 7 46 7 47 7 48 7 49 7 50 7 51 7 52 7 53 7 54 7 55 7 56 7 57 7 58 7 59 7 60 7 61 7 62 7 63 7 64 7 65 7 66 7 67 7 68 7 69 7 70 7 71 7 72 7 73 7 74 7 75 7 76 7 77 7 78 7 79 7 80 7 81 7 82 7 83 7 84 7 85 7 86 7 87 7 88 7 89 7 90 7 91 7 92 7 93 7 94 7 95 7 96 7 97 7 98 7 99 7 100 7 101 7 102 7 103 7 104 7 105 7 106 7 107 7 108 7 109 7 110 7 111 7 112 7 113 7 114 7 115 7 116 7 117 7 118 7 119 7 120 7 121 7 122 7 123 7 124 7 125 7 126 7 127 7 128 7 129 7 130 7 131 7 132 7 133 7 134 7 135 7 136 7 137 7 138 7 139 7 140 7 141 7 142 7 143 7 144 8 144 8 143 8 142 8 141 8 140 8 139 8 138 8 137 8 136 8 135 8 134 8 133 8 132 8 131 8 130 8 129 8 128 8 127 8 126 8 125 8 124 8 123 8 122 8 121 8 120 8 119 8 118 8 117 8 116 8 115 8 114 8 113 8 112 8 111 8 110 8 109 8 108 8 107 8 106 8 105 8 104 8 103 8 102 8 101 8 100 8 99 8 98 8 97 8 96 8 95 8 94 8 93 8 92 8 91 8 90 8 89 8 88 8 87 8 86 8 85 8 84 8 83 8 82 8 81 8 80 8 79 8 78 8 77 8 76 8 75 8 74 8 73 8 72 8 71 8 70 8 69 8 68 8 67 8 66 8 65 8 64 8 63 8 62 8 61 8 60 8 59 8 58 8 57 8 56 8 55 8 54 8 53 8 52 8 51 8 50 8 49 8 48 8 47 8 46 8 45 8 44 8 43 8 42 8 41 8 40 8 39 8 38 8 37 8 36 8 35 8 34 8 33 8 32 8 31 8 30 8 29 8 28 8 27 8 26 8 25 8 24 8 23 8 22 8 21 8 20 8 19 8 18 8 17 8 16 8 15 8 14 8 13 8 12 7 12" fill="#74bf2f"/><polygon points="4 12 4 13 4 14 4 15 4 16 4 17 4 18 4 19 4 20 4 21 4 22 4 23 4 24 4 25 4 26 4 27 4 28 4 29 4 30 4 31 4 32 4 33 4 34 4 35 4 36 4 37 4 38 4 39 4 40 4 41 4 42 4 43 4 44 4 45 4 46 4 47 4 48 4 49 4 50 4 51 4 52 4 53 4 54 4 55 4 56 4 57 4 58 4 59 4 60 4 61 4 62 4 63 4 64 4 65 4 66 4 67 4 68 4 69 4 70 4 71 4 72 4 73 4 74 4 75 4 76 4 77 4 78 4 79 4 80 4 81 4 82 4 83 4 84 4 85 4 86 4 87 4 88 4 89 4 90 4 91 4 92 4 93 4 94 4 95 4 96 4 97 4 98 4 99 4 100 4 101 4 102 4 103 4 104 4 105 4 106 4 107 4 108 4 109 4 110 4 111 4 112 4 113 4 114 4 115 4 116 4 117 4 118 4 119 4 120 4 121 4 122 4 123 4 124 4 125 4 126 4 127 4 128 4 129 4 130 4 131 4 132 4 133 4 134 4 135 4 136 4 137 4 138 4 139 4 140 4 141 4 142 4 143 4 144 5 144 5 143 5 142 5 141 5 140 5 139 5 138 5 137 5 136 5 135 5 134 5 133 5 132 5 131 5 130 5 129 5 128 5 127 5 126 5 125 5 124 5 123 5 122 5 121 5 120 5 119 5 118 5 117 5 116 5 115 5 114 5 113 5 112 5 111 5 110 5 109 5 108 5 107 5 106 5 105 5 104 5 103 5 102 5 101 5 100 5 99 5 98 5 97 5 96 5 95 5 94 5 93 5 92 5 91 5 90 5 89 5 88 5 87 5 86 5 85 5 84 5 83 5 82 5 81 5 80 5 79 5 78 5 77 5 76 5 75 5 74 5 73 5 72 5 71 5 70 5 69 5 68 5 67 5 66 5 65 5 64 5 63 5 62 5 61 5 60 5 59 5 58 5 57 5 56 5 55 5 54 5 53 5 52 5 51 5 50 5 49 5 48 5 47 5 46 5 45 5 44 5 43 5 42 5 41 5 40 5 39 5 38 5 37 5 36 5 35 5 34 5 33 5 32 5 31 5 30 5 29 5 28 5 27 5 26 5 25 5 24 5 23 5 22 5 21 5 20 5 19 5 18 5 17 5 16 5 15 5 14 5 13 5 12 4 12" fill="#e3fc94"/><polygon points="6 12 5 12 5 13 5 14 5 15 5 16 5 17 5 18 5 19 5 20 5 21 5 22 5 23 5 24 5 25 5 26 5 27 5 28 5 29 5 30 5 31 5 32 5 33 5 34 5 35 5 36 5 37 5 38 5 39 5 40 5 41 5 42 5 43 5 44 5 45 5 46 5 47 5 48 5 49 5 50 5 51 5 52 5 53 5 54 5 55 5 56 5 57 5 58 5 59 5 60 5 61 5 62 5 63 5 64 5 65 5 66 5 67 5 68 5 69 5 70 5 71 5 72 5 73 5 74 5 75 5 76 5 77 5 78 5 79 5 80 5 81 5 82 5 83 5 84 5 85 5 86 5 87 5 88 5 89 5 90 5 91 5 92 5 93 5 94 5 95 5 96 5 97 5 98 5 99 5 100 5 101 5 102 5 103 5 104 5 105 5 106 5 107 5 108 5 109 5 110 5 111 5 112 5 113 5 114 5 115 5 116 5 117 5 118 5 119 5 120 5 121 5 122 5 123 5 124 5 125 5 126 5 127 5 128 5 129 5 130 5 131 5 132 5 133 5 134 5 135 5 136 5 137 5 138 5 139 5 140 5 141 5 142 5 143 5 144 6 144 7 144 7 143 7 142 7 141 7 140 7 139 7 138 7 137 7 136 7 135 7 134 7 133 7 132 7 131 7 130 7 129 7 128 7 127 7 126 7 125 7 124 7 123 7 122 7 121 7 120 7 119 7 118 7 117 7 116 7 115 7 114 7 113 7 112 7 111 7 110 7 109 7 108 7 107 7 106 7 105 7 104 7 103 7 102 7 101 7 100 7 99 7 98 7 97 7 96 7 95 7 94 7 93 7 92 7 91 7 90 7 89 7 88 7 87 7 86 7 85 7 84 7 83 7 82 7 81 7 80 7 79 7 78 7 77 7 76 7 75 7 74 7 73 7 72 7 71 7 70 7 69 7 68 7 67 7 66 7 65 7 64 7 63 7 62 7 61 7 60 7 59 7 58 7 57 7 56 7 55 7 54 7 53 7 52 7 51 7 50 7 49 7 48 7 47 7 46 7 45 7 44 7 43 7 42 7 41 7 40 7 39 7 38 7 37 7 36 7 35 7 34 7 33 7 32 7 31 7 30 7 29 7 28 7 27 7 26 7 25 7 24 7 23 7 22 7 21 7 20 7 19 7 18 7 17 7 16 7 15 7 14 7 13 7 12 6 12" fill="#9ce659"/><polygon points="3 12 3 13 3 14 3 15 3 16 3 17 3 18 3 19 3 20 3 21 3 22 3 23 3 24 3 25 3 26 3 27 3 28 3 29 3 30 3 31 3 32 3 33 3 34 3 35 3 36 3 37 3 38 3 39 3 40 3 41 3 42 3 43 3 44 3 45 3 46 3 47 3 48 3 49 3 50 3 51 3 52 3 53 3 54 3 55 3 56 3 57 3 58 3 59 3 60 3 61 3 62 3 63 3 64 3 65 3 66 3 67 3 68 3 69 3 70 3 71 3 72 3 73 3 74 3 75 3 76 3 77 3 78 3 79 3 80 3 81 3 82 3 83 3 84 3 85 3 86 3 87 3 88 3 89 3 90 3 91 3 92 3 93 3 94 3 95 3 96 3 97 3 98 3 99 3 100 3 101 3 102 3 103 3 104 3 105 3 106 3 107 3 108 3 109 3 110 3 111 3 112 3 113 3 114 3 115 3 116 3 117 3 118 3 119 3 120 3 121 3 122 3 123 3 124 3 125 3 126 3 127 3 128 3 129 3 130 3 131 3 132 3 133 3 134 3 135 3 136 3 137 3 138 3 139 3 140 3 141 3 142 3 143 3 144 4 144 4 143 4 142 4 141 4 140 4 139 4 138 4 137 4 136 4 135 4 134 4 133 4 132 4 131 4 130 4 129 4 128 4 127 4 126 4 125 4 124 4 123 4 122 4 121 4 120 4 119 4 118 4 117 4 116 4 115 4 114 4 113 4 112 4 111 4 110 4 109 4 108 4 107 4 106 4 105 4 104 4 103 4 102 4 101 4 100 4 99 4 98 4 97 4 96 4 95 4 94 4 93 4 92 4 91 4 90 4 89 4 88 4 87 4 86 4 85 4 84 4 83 4 82 4 81 4 80 4 79 4 78 4 77 4 76 4 75 4 74 4 73 4 72 4 71 4 70 4 69 4 68 4 67 4 66 4 65 4 64 4 63 4 62 4 61 4 60 4 59 4 58 4 57 4 56 4 55 4 54 4 53 4 52 4 51 4 50 4 49 4 48 4 47 4 46 4 45 4 44 4 43 4 42 4 41 4 40 4 39 4 38 4 37 4 36 4 35 4 34 4 33 4 32 4 31 4 30 4 29 4 28 4 27 4 26 4 25 4 24 4 23 4 22 4 21 4 20 4 19 4 18 4 17 4 16 4 15 4 14 4 13 4 12 3 12" fill="#9ce659"/><polygon points="8 12 8 13 8 14 8 15 8 16 8 17 8 18 8 19 8 20 8 21 8 22 8 23 8 24 8 25 8 26 8 27 8 28 8 29 8 30 8 31 8 32 8 33 8 34 8 35 8 36 8 37 8 38 8 39 8 40 8 41 8 42 8 43 8 44 8 45 8 46 8 47 8 48 8 49 8 50 8 51 8 52 8 53 8 54 8 55 8 56 8 57 8 58 8 59 8 60 8 61 8 62 8 63 8 64 8 65 8 66 8 67 8 68 8 69 8 70 8 71 8 72 8 73 8 74 8 75 8 76 8 77 8 78 8 79 8 80 8 81 8 82 8 83 8 84 8 85 8 86 8 87 8 88 8 89 8 90 8 91 8 92 8 93 8 94 8 95 8 96 8 97 8 98 8 99 8 100 8 101 8 102 8 103 8 104 8 105 8 106 8 107 8 108 8 109 8 110 8 111 8 112 8 113 8 114 8 115 8 116 8 117 8 118 8 119 8 120 8 121 8 122 8 123 8 124 8 125 8 126 8 127 8 128 8 129 8 130 8 131 8 132 8 133 8 134 8 135 8 136 8 137 8 138 8 139 8 140 8 141 8 142 8 143 8 144 9 144 9 143 9 142 9 141 9 140 9 139 9 138 9 137 9 136 9 135 9 134 9 133 9 132 9 131 9 130 9 129 9 128 9 127 9 126 9 125 9 124 9 123 9 122 9 121 9 120 9 119 9 118 9 117 9 116 9 115 9 114 9 113 9 112 9 111 9 110 9 109 9 108 9 107 9 106 9 105 9 104 9 103 9 102 9 101 9 100 9 99 9 98 9 97 9 96 9 95 9 94 9 93 9 92 9 91 9 90 9 89 9 88 9 87 9 86 9 85 9 84 9 83 9 82 9 81 9 80 9 79 9 78 9 77 9 76 9 75 9 74 9 73 9 72 9 71 9 70 9 69 9 68 9 67 9 66 9 65 9 64 9 63 9 62 9 61 9 60 9 59 9 58 9 57 9 56 9 55 9 54 9 53 9 52 9 51 9 50 9 49 9 48 9 47 9 46 9 45 9 44 9 43 9 42 9 41 9 40 9 39 9 38 9 37 9 36 9 35 9 34 9 33 9 32 9 31 9 30 9 29 9 28 9 27 9 26 9 25 9 24 9 23 9 22 9 21 9 20 9 19 9 18 9 17 9 16 9 15 9 14 9 13 9 12 8 12" fill="#9ce659"/><polygon points="22 12 21 12 20 12 19 12 18 12 17 12 16 12 15 12 14 12 13 12 12 12 11 12 10 12 9 12 9 13 9 14 9 15 9 16 9 17 9 18 9 19 9 20 9 21 9 22 9 23 9 24 9 25 9 26 9 27 9 28 9 29 9 30 9 31 9 32 9 33 9 34 9 35 9 36 9 37 9 38 9 39 9 40 9 41 9 42 9 43 9 44 9 45 9 46 9 47 9 48 9 49 9 50 9 51 9 52 9 53 9 54 9 55 9 56 9 57 9 58 9 59 9 60 9 61 9 62 9 63 9 64 9 65 9 66 9 67 9 68 9 69 9 70 9 71 9 72 9 73 9 74 9 75 9 76 9 77 9 78 9 79 9 80 9 81 9 82 9 83 9 84 9 85 9 86 9 87 9 88 9 89 9 90 9 91 9 92 9 93 9 94 9 95 9 96 9 97 9 98 9 99 9 100 9 101 9 102 9 103 9 104 9 105 9 106 9 107 9 108 9 109 9 110 9 111 9 112 9 113 9 114 9 115 9 116 9 117 9 118 9 119 9 120 9 121 9 122 9 123 9 124 9 125 9 126 9 127 9 128 9 129 9 130 9 131 9 132 9 133 9 134 9 135 9 136 9 137 9 138 9 139 9 140 9 141 9 142 9 143 9 144 10 144 11 144 12 144 13 144 14 144 15 144 16 144 17 144 18 144 19 144 20 144 21 144 22 144 23 144 23 143 23 142 23 141 23 140 23 139 23 138 23 137 23 136 23 135 23 134 23 133 23 132 23 131 23 130 23 129 23 128 23 127 23 126 23 125 23 124 23 123 23 122 23 121 23 120 23 119 23 118 23 117 23 116 23 115 23 114 23 113 23 112 23 111 23 110 23 109 23 108 23 107 23 106 23 105 23 104 23 103 23 102 23 101 23 100 23 99 23 98 23 97 23 96 23 95 23 94 23 93 23 92 23 91 23 90 23 89 23 88 23 87 23 86 23 85 23 84 23 83 23 82 23 81 23 80 23 79 23 78 23 77 23 76 23 75 23 74 23 73 23 72 23 71 23 70 23 69 23 68 23 67 23 66 23 65 23 64 23 63 23 62 23 61 23 60 23 59 23 58 23 57 23 56 23 55 23 54 23 53 23 52 23 51 23 50 23 49 23 48 23 47 23 46 23 45 23 44 23 43 23 42 23 41 23 40 23 39 23 38 23 37 23 36 23 35 23 34 23 33 23 32 23 31 23 30 23 29 23 28 23 27 23 26 23 25 23 24 23 23 23 22 23 21 23 20 23 19 23 18 23 17 23 16 23 15 23 14 23 13 23 12 22 12" fill="#74bf2f"/><polygon points="24 12 24 13 24 14 24 15 24 16 24 17 24 18 24 19 24 20 24 21 24 22 24 23 24 24 24 25 24 26 24 27 24 28 24 29 24 30 24 31 24 32 24 33 24 34 24 35 24 36 24 37 24 38 24 39 24 40 24 41 24 42 24 43 24 44 24 45 24 46 24 47 24 48 24 49 24 50 24 51 24 52 24 53 24 54 24 55 24 56 24 57 24 58 24 59 24 60 24 61 24 62 24 63 24 64 24 65 24 66 24 67 24 68 24 69 24 70 24 71 24 72 24 73 24 74 24 75 24 76 24 77 24 78 24 79 24 80 24 81 24 82 24 83 24 84 24 85 24 86 24 87 24 88 24 89 24 90 24 91 24 92 24 93 24 94 24 95 24 96 24 97 24 98 24 99 24 100 24 101 24 102 24 103 24 104 24 105 24 106 24 107 24 108 24 109 24 110 24 111 24 112 24 113 24 114 24 115 24 116 24 117 24 118 24 119 24 120 24 121 24 122 24 123 24 124 24 125 24 126 24 127 24 128 24 129 24 130 24 131 24 132 24 133 24 134 24 135 24 136 24 137 24 138 24 139 24 140 24 141 24 142 24 143 24 144 25 144 25 143 25 142 25 141 25 140 25 139 25 138 25 137 25 136 25 135 25 134 25 133 25 132 25 131 25 130 25 129 25 128 25 127 25 126 25 125 25 124 25 123 25 122 25 121 25 120 25 119 25 118 25 117 25 116 25 115 25 114 25 113 25 112 25 111 25 110 25 109 25 108 25 107 25 106 25 105 25 104 25 103 25 102 25 101 25 100 25 99 25 98 25 97 25 96 25 95 25 94 25 93 25 92 25 91 25 90 25 89 25 88 25 87 25 86 25 85 25 84 25 83 25 82 25 81 25 80 25 79 25 78 25 77 25 76 25 75 25 74 25 73 25 72 25 71 25 70 25 69 25 68 25 67 25 66 25 65 25 64 25 63 25 62 25 61 25 60 25 59 25 58 25 57 25 56 25 55 25 54 25 53 25 52 25 51 25 50 25 49 25 48 25 47 25 46 25 45 25 44 25 43 25 42 25 41 25 40 25 39 25 38 25 37 25 36 25 35 25 34 25 33 25 32 25 31 25 30 25 29 25 28 25 27 25 26 25 25 25 24 25 23 25 22 25 21 25 20 25 19 25 18 25 17 25 16 25 15 25 14 25 13 25 12 24 12" fill="#74bf2f"/><polygon points="23 12 23 13 23 14 23 15 23 16 23 17 23 18 23 19 23 20 23 21 23 22 23 23 23 24 23 25 23 26 23 27 23 28 23 29 23 30 23 31 23 32 23 33 23 34 23 35 23 36 23 37 23 38 23 39 23 40 23 41 23 42 23 43 23 44 23 45 23 46 23 47 23 48 23 49 23 50 23 51 23 52 23 53 23 54 23 55 23 56 23 57 23 58 23 59 23 60 23 61 23 62 23 63 23 64 23 65 23 66 23 67 23 68 23 69 23 70 23 71 23 72 23 73 23 74 23 75 23 76 23 77 23 78 23 79 23 80 23 81 23 82 23 83 23 84 23 85 23 86 23 87 23 88 23 89 23 90 23 91 23 92 23 93 23 94 23 95 23 96 23 97 23 98 23 99 23 100 23 101 23 102 23 103 23 104 23 105 23 106 23 107 23 108 23 109 23 110 23 111 23 112 23 113 23 114 23 115 23 116 23 117 23 118 23 119 23 120 23 121 23 122 23 123 23 124 23 125 23 126 23 127 23 128 23 129 23 130 23 131 23 132 23 133 23 134 23 135 23 136 23 137 23 138 23 139 23 140 23 141 23 142 23 143 23 144 24 144 24 143 24 142 24 141 24 140 24 139 24 138 24 137 24 136 24 135 24 134 24 133 24 132 24 131 24 130 24 129 24 128 24 127 24 126 24 125 24 124 24 123 24 122 24 121 24 120 24 119 24 118 24 117 24 116 24 115 24 114 24 113 24 112 24 111 24 110 24 109 24 108 24 107 24 106 24 105 24 104 24 103 24 102 24 101 24 100 24 99 24 98 24 97 24 96 24 95 24 94 24 93 24 92 24 91 24 90 24 89 24 88 24 87 24 86 24 85 24 84 24 83 24 82 24 81 24 80 24 79 24 78 24 77 24 76 24 75 24 74 24 73 24 72 24 71 24 70 24 69 24 68 24 67 24 66 24 65 24 64 24 63 24 62 24 61 24 60 24 59 24 58 24 57 24 56 24 55 24 54 24 53 24 52 24 51 24 50 24 49 24 48 24 47 24 46 24 45 24 44 24 43 24 42 24 41 24 40 24 39 24 38 24 37 24 36 24 35 24 34 24 33 24 32 24 31 24 30 24 29 24 28 24 27 24 26 24 25 24 24 24 23 24 22 24 21 24 20 24 19 24 18 24 17 24 16 24 15 24 14 24 13 24 12 23 12" fill="#5f9023"/><polygon points="26 12 25 12 25 13 25 14 25 15 25 16 25 17 25 18 25 19 25 20 25 21 25 22 25 23 25 24 25 25 25 26 25 27 25 28 25 29 25 30 25 31 25 32 25 33 25 34 25 35 25 36 25 37 25 38 25 39 25 40 25 41 25 42 25 43 25 44 25 45 25 46 25 47 25 48 25 49 25 50 25 51 25 52 25 53 25 54 25 55 25 56 25 57 25 58 25 59 25 60 25 61 25 62 25 63 25 64 25 65 25 66 25 67 25 68 25 69 25 70 25 71 25 72 25 73 25 74 25 75 25 76 25 77 25 78 25 79 25 80 25 81 25 82 25 83 25 84 25 85 25 86 25 87 25 88 25 89 25 90 25 91 25 92 25 93 25 94 25 95 25 96 25 97 25 98 25 99 25 100 25 101 25 102 25 103 25 104 25 105 25 106 25 107 25 108 25 109 25 110 25 111 25 112 25 113 25 114 25 115 25 116 25 117 25 118 25 119 25 120 25 121 25 122 25 123 25 124 25 125 25 126 25 127 25 128 25 129 25 130 25 131 25 132 25 133 25 134 25 135 25 136 25 137 25 138 25 139 25 140 25 141 25 142 25 143 25 144 26 144 27 144 27 143 27 142 27 141 27 140 27 139 27 138 27 137 27 136 27 135 27 134 27 133 27 132 27 131 27 130 27 129 27 128 27 127 27 126 27 125 27 124 27 123 27 122 27 121 27 120 27 119 27 118 27 117 27 116 27 115 27 114 27 113 27 112 27 111 27 110 27 109 27 108 27 107 27 106 27 105 27 104 27 103 27 102 27 101 27 100 27 99 27 98 27 97 27 96 27 95 27 94 27 93 27 92 27 91 27 90 27 89 27 88 27 87 27 86 27 85 27 84 27 83 27 82 27 81 27 80 27 79 27 78 27 77 27 76 27 75 27 74 27 73 27 72 27 71 27 70 27 69 27 68 27 67 27 66 27 65 27 64 27 63 27 62 27 61 27 60 27 59 27 58 27 57 27 56 27 55 27 54 27 53 27 52 27 51 27 50 27 49 27 48 27 47 27 46 27 45 27 44 27 43 27 42 27 41 27 40 27 39 27 38 27 37 27 36 27 35 27 34 27 33 27 32 27 31 27 30 27 29 27 28 27 27 27 26 27 25 27 24 27 23 27 22 27 21 27 20 27 19 27 18 27 17 27 16 27 15 27 14 27 13 27 12 26 12" fill="#5f9023"/><polygon points="28 12 27 12 27 13 27 14 27 15 27 16 27 17 27 18 27 19 27 20 27 21 27 22 27 23 27 24 27 25 27 26 27 27 27 28 27 29 27 30 27 31 27 32 27 33 27 34 27 35 27 36 27 37 27 38 27 39 27 40 27 41 27 42 27 43 27 44 27 45 27 46 27 47 27 48 27 49 27 50 27 51 27 52 27 53 27 54 27 55 27 56 27 57 27 58 27 59 27 60 27 61 27 62 27 63 27 64 27 65 27 66 27 67 27 68 27 69 27 70 27 71 27 72 27 73 27 74 27 75 27 76 27 77 27 78 27 79 27 80 27 81 27 82 27 83 27 84 27 85 27 86 27 87 27 88 27 89 27 90 27 91 27 92 27 93 27 94 27 95 27 96 27 97 27 98 27 99 27 100 27 101 27 102 27 103 27 104 27 105 27 106 27 107 27 108 27 109 27 110 27 111 27 112 27 113 27 114 27 115 27 116 27 117 27 118 27 119 27 120 27 121 27 122 27 123 27 124 27 125 27 126 27 127 27 128 27 129 27 130 27 131 27 132 27 133 27 134 27 135 27 136 27 137 27 138 27 139 27 140 27 141 27 142 27 143 27 144 28 144 28 143 28 142 28 141 28 140 28 139 28 138 28 137 28 136 28 135 28 134 28 133 28 132 28 131 28 130 28 129 28 128 28 127 28 126 28 125 28 124 28 123 28 122 28 121 28 120 28 119 28 118 28 117 28 116 28 115 28 114 28 113 28 112 28 111 28 110 28 109 28 108 28 107 28 106 28 105 28 104 28 103 28 102 28 101 28 100 28 99 28 98 28 97 28 96 28 95 28 94 28 93 28 92 28 91 28 90 28 89 28 88 28 87 28 86 28 85 28 84 28 83 28 82 28 81 28 80 28 79 28 78 28 77 28 76 28 75 28 74 28 73 28 72 28 71 28 70 28 69 28 68 28 67 28 66 28 65 28 64 28 63 28 62 28 61 28 60 28 59 28 58 28 57 28 56 28 55 28 54 28 53 28 52 28 51 28 50 28 49 28 48 28 47 28 46 28 45 28 44 28 43 28 42 28 41 28 40 28 39 28 38 28 37 28 36 28 35 28 34 28 33 28 32 28 31 28 30 28 29 28 28 28 27 28 26 28 25 28 24 28 23 28 22 28 21 28 20 28 19 28 18 28 17 28 16 28 15 28 14 28 13 28 12 28 12" fill="#333"/></svg>