<svg id="Play_Button" data-name="Play Button" xmlns="http://www.w3.org/2000/svg" viewBox="0 0 43 22"><title>play-button</title><polygon points="41 3 41 2 40 2 40 1 3 1 3 2 2 2 2 3 1 3 1 11 42 11 42 3 41 3" fill="#fff"/><polygon points="1 11 1 19 2 19 2 20 3 20 3 21 40 21 40 20 41 20 41 19 42 19 42 11 1 11" fill="#f2f2f2"/><polygon points="20 6 19 6 19 7 20 7 20 7 20 6" fill="#00ad44"/><path d="M24,12V10H23V9H22V8H21V7H19v3h0v3h0v3h1V15h1V14h1V13h1V12Zm-4,1Zm0-3Zm2,0Zm-1,0Zm0,3Z" transform="translate(0)" fill="#00ad44"/><polygon points="3 1 2 1 2 2 3 2 3 1 3 1" fill="#333"/><polygon points="2 2 1 2 1 3 2 3 2 2 2 2" fill="#333"/><polygon points="1 3 0 3 0 4 0 5 0 6 0 7 1 7 1 7 1 6 1 5 1 4 1 3 1 3" fill="#333"/><polygon points="9 0 8 0 7 0 6 0 6 0 5 0 4 0 3 0 3 1 4 1 5 1 6 1 6 1 7 1 8 1 9 1 9 0 9 0" fill="#333"/><polygon points="2 19 1 19 1 20 2 20 2 19 2 19" fill="#333"/><polygon points="3 20 2 20 2 21 3 21 3 20 3 20" fill="#333"/><polygon points="9 21 8 21 7 21 6 21 6 21 5 21 4 21 3 21 3 22 4 22 5 22 6 22 6 22 7 22 8 22 9 22 9 21 9 21" fill="#333"/><polygon points="15 0 14 0 13 0 12 0 12 0 11 0 10 0 9 0 9 1 10 1 11 1 12 1 12 1 13 1 14 1 15 1 15 0 15 0" fill="#333"/><polygon points="15 21 14 21 13 21 12 21 12 21 11 21 10 21 9 21 9 22 10 22 11 22 12 22 12 22 13 22 14 22 15 22 15 21 15 21" fill="#333"/><polygon points="21 0 20 0 19 0 18 0 18 0 17 0 16 0 15 0 15 1 16 1 17 1 18 1 18 1 19 1 20 1 21 1 21 0 21 0" fill="#333"/><polygon points="21 21 20 21 19 21 18 21 18 21 17 21 16 21 15 21 15 22 16 22 17 22 18 22 18 22 19 22 20 22 21 22 21 21 21 21" fill="#333"/><polygon points="27 0 26 0 25 0 24 0 24 0 23 0 22 0 21 0 21 1 22 1 23 1 24 1 24 1 25 1 26 1 27 1 27 0 27 0" fill="#333"/><polygon points="27 21 26 21 25 21 24 21 24 21 23 21 22 21 21 21 21 22 22 22 23 22 24 22 24 22 25 22 26 22 27 22 27 21 27 21" fill="#333"/><polygon points="1 7 0 7 0 8 0 9 0 10 0 10 0 11 0 12 0 13 0 13 0 14 0 15 0 16 0 16 0 17 0 18 0 19 1 19 1 18 1 17 1 16 1 16 1 15 1 14 1 13 1 13 1 12 1 11 1 10 1 10 1 9 1 8 1 7 1 7" fill="#333"/><polygon points="41 20 40 20 40 21 41 21 41 20 41 20" fill="#333"/><polygon points="42 19 41 19 41 20 42 20 42 19 42 19" fill="#333"/><polygon points="43 15 42 15 42 15 42 16 42 17 42 18 42 19 43 19 43 18 43 17 43 16 43 15 43 15" fill="#333"/><polygon points="33 21 32 21 31 21 30 21 30 21 29 21 28 21 27 21 27 22 28 22 29 22 30 22 30 22 31 22 32 22 33 22 33 22 34 22 35 22 36 22 37 22 37 22 38 22 39 22 40 22 40 21 39 21 38 21 37 21 37 21 36 21 35 21 34 21 33 21 33 21 33 21" fill="#333"/><polygon points="42 2 41 2 41 3 42 3 42 2 42 2" fill="#333"/><polygon points="40 0 39 0 38 0 37 0 37 0 36 0 35 0 34 0 34 0 33 0 33 0 32 0 31 0 30 0 30 0 29 0 28 0 27 0 27 1 28 1 29 1 30 1 30 1 31 1 32 1 33 1 33 1 34 1 34 1 35 1 36 1 37 1 37 1 38 1 39 1 40 1 40 0 40 0" fill="#333"/><polygon points="41 1 40 1 40 2 41 2 41 1 41 1" fill="#333"/><polygon points="43 3 42 3 42 4 42 5 42 6 42 6 42 7 42 8 42 9 42 9 42 10 42 11 42 12 42 12 42 13 42 14 42 15 43 15 43 14 43 13 43 12 43 12 43 11 43 10 43 9 43 9 43 8 43 7 43 6 43 6 43 5 43 4 43 3 43 3" fill="#333"/></svg>