<svg id="Stars" xmlns="http://www.w3.org/2000/svg" viewBox="0 0 285 90"><title>stars</title><rect x="10" y="71" width="1" height="1" fill="#fff"/><rect x="69" y="81" width="1" height="1" fill="#fff"/><rect x="88" y="55" width="1" height="1" fill="#fff"/><rect x="130" y="71" width="1" height="1" fill="#fff"/><rect x="173" y="60" width="1" height="1" fill="#fff"/><rect x="218" y="89" width="1" height="1" fill="#fff"/><rect x="254" y="65" width="1" height="1" fill="#fff"/><rect x="154" y="21" width="1" height="1" fill="#fff"/><rect x="114" y="45" width="1" height="1" fill="#fff"/><rect x="34" y="34" width="1" height="1" fill="#fff"/><rect x="54" y="73" width="1" height="1" fill="#fff"/><rect x="214" y="30" width="1" height="1" fill="#fff"/><rect x="70" y="16" width="1" height="1" fill="#fff"/><rect x="4" y="23" width="1" height="1" fill="#fff"/><rect x="257" y="45" width="1" height="1" fill="#fff"/><rect x="244" y="12" width="1" height="1" fill="#fff"/><rect x="274" y="23" width="1" height="1" fill="#fff"/><rect x="194" y="67" width="1" height="1" fill="#fff"/><rect x="114" y="6" width="1" height="1" fill="#fff"/><rect x="194" y="1" width="1" height="1" fill="#fff"/><rect x="34" width="1" height="1" fill="#fff"/><rect x="284" y="5" width="1" height="1" fill="#fff"/><rect y="7" width="1" height="1" fill="#fff"/><rect x="164" y="12" width="1" height="1" fill="#fff"/><rect x="71" y="34" width="1" height="1" fill="#fff"/><rect x="134" y="54" width="1" height="1" fill="#fff"/><rect x="135" y="54" width="1" height="1" fill="#fff"/><rect x="134" y="53" width="1" height="1" fill="#fff"/><rect x="134" y="55" width="1" height="1" fill="#fff"/><rect x="133" y="54" width="1" height="1" fill="#fff"/><rect x="195" y="22" width="1" height="1" fill="#fff"/><rect x="196" y="22" width="1" height="1" fill="#fff"/><rect x="195" y="21" width="1" height="1" fill="#fff"/><rect x="195" y="23" width="1" height="1" fill="#fff"/><rect x="194" y="22" width="1" height="1" fill="#fff"/><rect x="46" y="23" width="1" height="1" fill="#fff"/><rect x="47" y="23" width="1" height="1" fill="#fff"/><rect x="46" y="22" width="1" height="1" fill="#fff"/><rect x="46" y="24" width="1" height="1" fill="#fff"/><rect x="45" y="23" width="1" height="1" fill="#fff"/></svg>